%TF.GenerationSoftware,KiCad,Pcbnew,9.0.6*%
%TF.CreationDate,2025-12-21T07:11:03-06:00*%
%TF.ProjectId,FeatheAudio,46656174-6865-4417-9564-696f2e6b6963,rev?*%
%TF.SameCoordinates,Original*%
%TF.FileFunction,Soldermask,Top*%
%TF.FilePolarity,Negative*%
%FSLAX46Y46*%
G04 Gerber Fmt 4.6, Leading zero omitted, Abs format (unit mm)*
G04 Created by KiCad (PCBNEW 9.0.6) date 2025-12-21 07:11:03*
%MOMM*%
%LPD*%
G01*
G04 APERTURE LIST*
G04 Aperture macros list*
%AMRoundRect*
0 Rectangle with rounded corners*
0 $1 Rounding radius*
0 $2 $3 $4 $5 $6 $7 $8 $9 X,Y pos of 4 corners*
0 Add a 4 corners polygon primitive as box body*
4,1,4,$2,$3,$4,$5,$6,$7,$8,$9,$2,$3,0*
0 Add four circle primitives for the rounded corners*
1,1,$1+$1,$2,$3*
1,1,$1+$1,$4,$5*
1,1,$1+$1,$6,$7*
1,1,$1+$1,$8,$9*
0 Add four rect primitives between the rounded corners*
20,1,$1+$1,$2,$3,$4,$5,0*
20,1,$1+$1,$4,$5,$6,$7,0*
20,1,$1+$1,$6,$7,$8,$9,0*
20,1,$1+$1,$8,$9,$2,$3,0*%
%AMFreePoly0*
4,1,64,0.235711,1.439036,0.382774,1.378120,0.515127,1.289684,0.627684,1.177127,0.716120,1.044774,0.777036,0.897711,0.808090,0.741590,0.808090,0.582410,0.777036,0.426289,0.716120,0.279226,0.627684,0.146873,0.515127,0.034316,0.382774,-0.054120,0.235711,-0.115036,0.079590,-0.146090,0.031746,-0.146090,0.029264,-0.147118,-0.029264,-0.147118,-0.031746,-0.146090,-0.079590,-0.146090,
-0.235711,-0.115036,-0.382774,-0.054120,-0.515127,0.034316,-0.627684,0.146873,-0.716120,0.279226,-0.777036,0.426289,-0.808090,0.582410,-0.808090,0.729406,-0.512000,0.729406,-0.512000,0.594594,-0.477108,0.464375,-0.409702,0.347625,-0.314375,0.252298,-0.197625,0.184892,-0.067406,0.150000,0.067406,0.150000,0.197625,0.184892,0.314375,0.252298,0.409702,0.347625,0.477108,0.464375,
0.512000,0.594594,0.512000,0.729406,0.477108,0.859625,0.409702,0.976375,0.314375,1.071702,0.197625,1.139108,0.067406,1.174000,-0.067406,1.174000,-0.197625,1.139108,-0.314375,1.071702,-0.409702,0.976375,-0.477108,0.859625,-0.512000,0.729406,-0.808090,0.729406,-0.808090,0.741590,-0.777036,0.897711,-0.716120,1.044774,-0.627684,1.177127,-0.515127,1.289684,-0.382774,1.378120,
-0.235711,1.439036,-0.079590,1.470090,0.079590,1.470090,0.235711,1.439036,0.235711,1.439036,$1*%
G04 Aperture macros list end*
%ADD10R,0.700000X1.200000*%
%ADD11R,1.000000X0.800000*%
%ADD12R,1.000000X1.200000*%
%ADD13R,1.000000X2.800000*%
%ADD14R,1.300000X1.900000*%
%ADD15R,1.900000X1.000000*%
%ADD16C,0.500000*%
%ADD17RoundRect,0.130500X-0.169500X-0.130500X0.169500X-0.130500X0.169500X0.130500X-0.169500X0.130500X0*%
%ADD18FreePoly0,90.000000*%
%ADD19RoundRect,0.225000X-0.225000X-0.250000X0.225000X-0.250000X0.225000X0.250000X-0.225000X0.250000X0*%
%ADD20RoundRect,0.250000X0.350000X0.625000X-0.350000X0.625000X-0.350000X-0.625000X0.350000X-0.625000X0*%
%ADD21O,1.200000X1.750000*%
%ADD22R,1.700000X1.700000*%
%ADD23C,1.700000*%
%ADD24C,2.100000*%
%ADD25C,1.750000*%
%ADD26RoundRect,0.135000X-0.135000X-0.185000X0.135000X-0.185000X0.135000X0.185000X-0.135000X0.185000X0*%
%ADD27RoundRect,0.250000X-0.295000X-0.315000X0.295000X-0.315000X0.295000X0.315000X-0.295000X0.315000X0*%
%ADD28R,2.540000X3.510000*%
%ADD29C,3.450000*%
%ADD30RoundRect,0.249999X-1.250001X-1.250001X1.250001X-1.250001X1.250001X1.250001X-1.250001X1.250001X0*%
%ADD31C,3.000000*%
G04 APERTURE END LIST*
D10*
%TO.C,J6*%
X111755000Y-62690000D03*
X112855000Y-62690000D03*
X113955000Y-62690000D03*
X115055000Y-62690000D03*
X116155000Y-62690000D03*
X117255000Y-62690000D03*
X118355000Y-62690000D03*
X119455000Y-62690000D03*
X120405000Y-62690000D03*
D11*
X121355000Y-52190000D03*
D12*
X121355000Y-58390000D03*
D13*
X121355000Y-48040000D03*
D12*
X110205000Y-62690000D03*
D14*
X107855000Y-47590000D03*
%TD*%
D15*
%TO.C,J5*%
X146200000Y-56880000D03*
X149500000Y-59420000D03*
X146200000Y-61960000D03*
X149500000Y-64500000D03*
X146200000Y-67040000D03*
X149500000Y-69580000D03*
X146200000Y-72120000D03*
X149500000Y-74660000D03*
X146200000Y-77200000D03*
X149500000Y-79740000D03*
X146200000Y-82280000D03*
X149500000Y-84820000D03*
%TD*%
D16*
%TO.C,MK1*%
X112338000Y-98500000D03*
D17*
X111438000Y-96426000D03*
X111438000Y-97248000D03*
D18*
X113000000Y-98500000D03*
D17*
X113238000Y-97248000D03*
X113238000Y-96426000D03*
X112338000Y-96426000D03*
%TD*%
D15*
%TO.C,J4*%
X126000000Y-46800000D03*
X129300000Y-49340000D03*
X126000000Y-51880000D03*
X129300000Y-54420000D03*
X126000000Y-56960000D03*
X129300000Y-59500000D03*
X126000000Y-62040000D03*
X129300000Y-64580000D03*
X126000000Y-67120000D03*
X129300000Y-69660000D03*
X126000000Y-72200000D03*
X129300000Y-74740000D03*
X126000000Y-77280000D03*
X129300000Y-79820000D03*
X126000000Y-82360000D03*
X129300000Y-84900000D03*
%TD*%
D19*
%TO.C,C1*%
X116225000Y-96500000D03*
X117775000Y-96500000D03*
%TD*%
D20*
%TO.C,J3*%
X160000000Y-52950000D03*
D21*
X158000000Y-52950000D03*
%TD*%
D22*
%TO.C,J1*%
X121500000Y-84580000D03*
D23*
X121500000Y-82040000D03*
X121500000Y-79500000D03*
X121500000Y-76960000D03*
X121500000Y-74420000D03*
X121500000Y-71880000D03*
X121500000Y-69340000D03*
%TD*%
D24*
%TO.C,SW2*%
X159010000Y-69500000D03*
X159010000Y-76510000D03*
D25*
X161500000Y-70750000D03*
X161500000Y-75250000D03*
%TD*%
D26*
%TO.C,R1*%
X108430000Y-96810000D03*
X109450000Y-96810000D03*
%TD*%
D27*
%TO.C,C2*%
X116295000Y-98500000D03*
X117725000Y-98500000D03*
%TD*%
D28*
%TO.C,BT1*%
X151680000Y-97000000D03*
X122320000Y-97000000D03*
%TD*%
D24*
%TO.C,SW3*%
X159047500Y-89975000D03*
X159047500Y-96985000D03*
D25*
X161537500Y-91225000D03*
X161537500Y-95725000D03*
%TD*%
D26*
%TO.C,R2*%
X108430000Y-98560000D03*
X109450000Y-98560000D03*
%TD*%
D29*
%TO.C,BT2*%
X134500000Y-117000000D03*
X134500000Y-141000000D03*
D30*
X110780000Y-117000000D03*
D31*
X110780000Y-129700000D03*
%TD*%
D24*
%TO.C,SW1*%
X159047500Y-99975000D03*
X159047500Y-106985000D03*
D25*
X161537500Y-101225000D03*
X161537500Y-105725000D03*
%TD*%
M02*
