%TF.GenerationSoftware,KiCad,Pcbnew,9.0.6*%
%TF.CreationDate,2025-12-21T07:11:03-06:00*%
%TF.ProjectId,FeatheAudio,46656174-6865-4417-9564-696f2e6b6963,rev?*%
%TF.SameCoordinates,Original*%
%TF.FileFunction,Copper,L2,Bot*%
%TF.FilePolarity,Positive*%
%FSLAX46Y46*%
G04 Gerber Fmt 4.6, Leading zero omitted, Abs format (unit mm)*
G04 Created by KiCad (PCBNEW 9.0.6) date 2025-12-21 07:11:03*
%MOMM*%
%LPD*%
G01*
G04 APERTURE LIST*
G04 Aperture macros list*
%AMRoundRect*
0 Rectangle with rounded corners*
0 $1 Rounding radius*
0 $2 $3 $4 $5 $6 $7 $8 $9 X,Y pos of 4 corners*
0 Add a 4 corners polygon primitive as box body*
4,1,4,$2,$3,$4,$5,$6,$7,$8,$9,$2,$3,0*
0 Add four circle primitives for the rounded corners*
1,1,$1+$1,$2,$3*
1,1,$1+$1,$4,$5*
1,1,$1+$1,$6,$7*
1,1,$1+$1,$8,$9*
0 Add four rect primitives between the rounded corners*
20,1,$1+$1,$2,$3,$4,$5,0*
20,1,$1+$1,$4,$5,$6,$7,0*
20,1,$1+$1,$6,$7,$8,$9,0*
20,1,$1+$1,$8,$9,$2,$3,0*%
G04 Aperture macros list end*
%TA.AperFunction,Conductor*%
%ADD10C,0.200000*%
%TD*%
%TA.AperFunction,ComponentPad*%
%ADD11RoundRect,0.250000X0.350000X0.625000X-0.350000X0.625000X-0.350000X-0.625000X0.350000X-0.625000X0*%
%TD*%
%TA.AperFunction,ComponentPad*%
%ADD12O,1.200000X1.750000*%
%TD*%
%TA.AperFunction,ComponentPad*%
%ADD13R,1.700000X1.700000*%
%TD*%
%TA.AperFunction,ComponentPad*%
%ADD14C,1.700000*%
%TD*%
%TA.AperFunction,ComponentPad*%
%ADD15C,2.100000*%
%TD*%
%TA.AperFunction,ComponentPad*%
%ADD16C,1.750000*%
%TD*%
%TA.AperFunction,ComponentPad*%
%ADD17RoundRect,0.249999X-1.250001X-1.250001X1.250001X-1.250001X1.250001X1.250001X-1.250001X1.250001X0*%
%TD*%
%TA.AperFunction,ComponentPad*%
%ADD18C,3.000000*%
%TD*%
%TA.AperFunction,ViaPad*%
%ADD19C,0.600000*%
%TD*%
G04 APERTURE END LIST*
D10*
%TO.N,+BATT 5v*%
X125500000Y-75500000D02*
X123000000Y-75500000D01*
%TO.N,-BATT*%
X115500000Y-100500000D02*
X114000000Y-100500000D01*
X163500000Y-70500000D02*
X162000000Y-70500000D01*
X162500000Y-91000000D02*
X163500000Y-91000000D01*
%TO.N,Net-(J5-Pin_8)*%
X154000000Y-81000000D02*
X151500000Y-78500000D01*
%TO.N,-BATT*%
X162000000Y-101000000D02*
X163500000Y-99500000D01*
%TO.N,Net-(J5-Pin_9)*%
X161000000Y-75000000D02*
X153000000Y-75000000D01*
%TO.N,Net-(J4-Pin_13)*%
X121000000Y-64000000D02*
X120500000Y-61500000D01*
%TO.N,Net-(J5-Pin_10)*%
X147500000Y-80500000D02*
X152500000Y-82500000D01*
%TO.N,Net-(J4-Pin_16)*%
X130500000Y-84000000D02*
X130000000Y-83500000D01*
%TO.N,Net-(J5-Pin_9)*%
X153000000Y-77000000D02*
X148000000Y-77000000D01*
%TO.N,Net-(MK1-DATA)*%
X110000000Y-95000000D02*
X112000000Y-94000000D01*
%TO.N,+BATT 5v*%
X125500000Y-75500000D02*
X144500000Y-87000000D01*
%TO.N,-BATT*%
X163500000Y-91000000D02*
X163500000Y-70500000D01*
%TO.N,Net-(J1-Pin_1)*%
X134000000Y-76000000D02*
X134500000Y-78000000D01*
%TO.N,Net-(J5-Pin_9)*%
X153000000Y-75000000D02*
X153000000Y-77000000D01*
%TO.N,-BATT*%
X163500000Y-91000000D02*
X162500000Y-91000000D01*
%TO.N,Net-(J1-Pin_1)*%
X125000000Y-88000000D02*
X123000000Y-86500000D01*
%TO.N,-BATT*%
X163500000Y-99500000D02*
X163500000Y-91000000D01*
%TO.N,Net-(J1-Pin_3)*%
X127000000Y-79500000D02*
X124000000Y-79500000D01*
%TO.N,-BATT*%
X157500000Y-53000000D02*
X132000000Y-54500000D01*
%TD*%
D11*
%TO.P,J3,1,Pin_1*%
%TO.N,+BATT 5v*%
X160000000Y-52950000D03*
D12*
%TO.P,J3,2,Pin_2*%
%TO.N,-BATT*%
X158000000Y-52950000D03*
%TD*%
D13*
%TO.P,J1,1,Pin_1*%
%TO.N,Net-(J1-Pin_1)*%
X121500000Y-84580000D03*
D14*
%TO.P,J1,2,Pin_2*%
%TO.N,Net-(J1-Pin_2)*%
X121500000Y-82040000D03*
%TO.P,J1,3,Pin_3*%
%TO.N,Net-(J1-Pin_3)*%
X121500000Y-79500000D03*
%TO.P,J1,4,Pin_4*%
%TO.N,unconnected-(J1-Pin_4-Pad4)*%
X121500000Y-76960000D03*
%TO.P,J1,5,Pin_5*%
%TO.N,+BATT 5v*%
X121500000Y-74420000D03*
%TO.P,J1,6,Pin_6*%
%TO.N,-BATT*%
X121500000Y-71880000D03*
%TO.P,J1,7,Pin_7*%
%TO.N,+BATT 5v*%
X121500000Y-69340000D03*
%TD*%
D15*
%TO.P,SW2,*%
%TO.N,*%
X159010000Y-69500000D03*
X159010000Y-76510000D03*
D16*
%TO.P,SW2,1,1*%
%TO.N,-BATT*%
X161500000Y-70750000D03*
%TO.P,SW2,2,2*%
%TO.N,Net-(J5-Pin_9)*%
X161500000Y-75250000D03*
%TD*%
D15*
%TO.P,SW3,*%
%TO.N,*%
X159047500Y-89975000D03*
X159047500Y-96985000D03*
D16*
%TO.P,SW3,1,1*%
%TO.N,-BATT*%
X161537500Y-91225000D03*
%TO.P,SW3,2,2*%
%TO.N,Net-(J5-Pin_10)*%
X161537500Y-95725000D03*
%TD*%
D17*
%TO.P,BT2,1,+*%
%TO.N,+BATT 5v*%
X110780000Y-117000000D03*
D18*
%TO.P,BT2,2,-*%
%TO.N,-BATT*%
X110780000Y-129700000D03*
%TD*%
D15*
%TO.P,SW1,*%
%TO.N,*%
X159047500Y-99975000D03*
X159047500Y-106985000D03*
D16*
%TO.P,SW1,1,1*%
%TO.N,-BATT*%
X161537500Y-101225000D03*
%TO.P,SW1,2,2*%
%TO.N,Net-(J5-Pin_8)*%
X161537500Y-105725000D03*
%TD*%
D19*
%TO.N,Net-(J1-Pin_2)*%
X127500000Y-70000000D03*
X114500000Y-95500000D03*
X114248000Y-97248000D03*
%TO.N,Net-(MK1-DATA)*%
X110000000Y-95000000D03*
X112000000Y-94000000D03*
%TO.N,Net-(J1-Pin_1)*%
X134500000Y-78000000D03*
X123000000Y-86500000D03*
X125000000Y-88000000D03*
X134000000Y-76000000D03*
%TO.N,Net-(J1-Pin_3)*%
X127000000Y-79500000D03*
X131500000Y-77500000D03*
X134000000Y-74000000D03*
X124000000Y-79500000D03*
%TO.N,Net-(J4-Pin_11)*%
X116500000Y-64000000D03*
X126000000Y-73500000D03*
%TO.N,Net-(J4-Pin_16)*%
X128000000Y-81000000D03*
X130516696Y-83973286D03*
%TO.N,Net-(J4-Pin_12)*%
X131000000Y-74500000D03*
X118000000Y-66500000D03*
%TO.N,Net-(J5-Pin_9)*%
X148000000Y-77000000D03*
%TO.N,Net-(J5-Pin_8)*%
X151500000Y-78500000D03*
X154000000Y-81000000D03*
%TO.N,Net-(J5-Pin_10)*%
X147500000Y-80500000D03*
X152500000Y-82500000D03*
%TO.N,Net-(J4-Pin_13)*%
X120500000Y-61500000D03*
X121000000Y-64000000D03*
%TO.N,-BATT*%
X132000000Y-54500000D03*
X115500000Y-100500000D03*
X114000000Y-100500000D03*
X119000000Y-72500000D03*
%TO.N,+BATT 3.3v*%
X116000000Y-90104200D03*
X138250000Y-62750000D03*
X116532500Y-64967500D03*
%TO.N,+BATT 5v*%
X123500000Y-73000000D03*
X123000000Y-75500000D03*
X144399200Y-86899200D03*
%TD*%
D10*
%TO.N,Net-(J1-Pin_2)*%
X127500000Y-70145532D02*
X127500000Y-70000000D01*
X121500000Y-82040000D02*
X122749732Y-80790268D01*
X122395800Y-75249732D02*
X127500000Y-70145532D01*
X122395800Y-75750268D02*
X122395800Y-75249732D01*
X122749732Y-80790268D02*
X122749732Y-76104200D01*
X114248000Y-95752000D02*
X114500000Y-95500000D01*
X114248000Y-97248000D02*
X114248000Y-95752000D01*
X122749732Y-76104200D02*
X122395800Y-75750268D01*
%TO.N,Net-(J1-Pin_3)*%
X134000000Y-75000000D02*
X131500000Y-77500000D01*
X134000000Y-74000000D02*
X134000000Y-75000000D01*
%TO.N,Net-(J4-Pin_11)*%
X127604200Y-75104200D02*
X131250268Y-75104200D01*
X116500000Y-63145532D02*
X116500000Y-64000000D01*
X139000000Y-56395800D02*
X123249732Y-56395800D01*
X123249732Y-56395800D02*
X116500000Y-63145532D01*
X131250268Y-75104200D02*
X139000000Y-67354468D01*
X139000000Y-67354468D02*
X139000000Y-56395800D01*
X126000000Y-73500000D02*
X127604200Y-75104200D01*
%TO.N,Net-(J4-Pin_16)*%
X128301600Y-81301600D02*
X128301600Y-82301600D01*
X128000000Y-81000000D02*
X128301600Y-81301600D01*
X128301600Y-82301600D02*
X128895800Y-82895800D01*
X128895800Y-82895800D02*
X129395800Y-82895800D01*
X129395800Y-82895800D02*
X130000000Y-83500000D01*
%TO.N,Net-(J4-Pin_12)*%
X131000000Y-72645532D02*
X131000000Y-74500000D01*
X124854468Y-66500000D02*
X131000000Y-72645532D01*
X118000000Y-66500000D02*
X124854468Y-66500000D01*
%TO.N,Net-(J5-Pin_9)*%
X161500000Y-75250000D02*
X161250000Y-75250000D01*
X161500000Y-75250000D02*
X161405800Y-75155800D01*
X161250000Y-75250000D02*
X161000000Y-75000000D01*
%TO.N,-BATT*%
X161500000Y-70750000D02*
X162374999Y-69875001D01*
X162374999Y-69875001D02*
X162374999Y-57324999D01*
X162374999Y-57324999D02*
X158000000Y-52950000D01*
X162275000Y-91225000D02*
X162500000Y-91000000D01*
X161537500Y-91225000D02*
X162275000Y-91225000D01*
X120880000Y-72500000D02*
X119000000Y-72500000D01*
X121500000Y-71880000D02*
X120880000Y-72500000D01*
%TO.N,+BATT 3.3v*%
X136000000Y-65000000D02*
X116565000Y-65000000D01*
X116565000Y-65000000D02*
X116532500Y-64967500D01*
X116532500Y-64967500D02*
X116000000Y-65500000D01*
X116000000Y-65500000D02*
X116000000Y-90104200D01*
X136000000Y-65000000D02*
X138250000Y-62750000D01*
%TO.N,+BATT 5v*%
X122920000Y-73000000D02*
X121500000Y-74420000D01*
X123500000Y-73000000D02*
X122920000Y-73000000D01*
%TD*%
M02*
