%TF.GenerationSoftware,KiCad,Pcbnew,9.0.6*%
%TF.CreationDate,2025-12-21T07:11:03-06:00*%
%TF.ProjectId,FeatheAudio,46656174-6865-4417-9564-696f2e6b6963,rev?*%
%TF.SameCoordinates,Original*%
%TF.FileFunction,Copper,L1,Top*%
%TF.FilePolarity,Positive*%
%FSLAX46Y46*%
G04 Gerber Fmt 4.6, Leading zero omitted, Abs format (unit mm)*
G04 Created by KiCad (PCBNEW 9.0.6) date 2025-12-21 07:11:03*
%MOMM*%
%LPD*%
G01*
G04 APERTURE LIST*
G04 Aperture macros list*
%AMRoundRect*
0 Rectangle with rounded corners*
0 $1 Rounding radius*
0 $2 $3 $4 $5 $6 $7 $8 $9 X,Y pos of 4 corners*
0 Add a 4 corners polygon primitive as box body*
4,1,4,$2,$3,$4,$5,$6,$7,$8,$9,$2,$3,0*
0 Add four circle primitives for the rounded corners*
1,1,$1+$1,$2,$3*
1,1,$1+$1,$4,$5*
1,1,$1+$1,$6,$7*
1,1,$1+$1,$8,$9*
0 Add four rect primitives between the rounded corners*
20,1,$1+$1,$2,$3,$4,$5,0*
20,1,$1+$1,$4,$5,$6,$7,0*
20,1,$1+$1,$6,$7,$8,$9,0*
20,1,$1+$1,$8,$9,$2,$3,0*%
%AMFreePoly0*
4,1,64,0.235711,1.439036,0.382774,1.378120,0.515127,1.289684,0.627684,1.177127,0.716120,1.044774,0.777036,0.897711,0.808090,0.741590,0.808090,0.582410,0.777036,0.426289,0.716120,0.279226,0.627684,0.146873,0.515127,0.034316,0.382774,-0.054120,0.235711,-0.115036,0.079590,-0.146090,0.031746,-0.146090,0.029264,-0.147118,-0.029264,-0.147118,-0.031746,-0.146090,-0.079590,-0.146090,
-0.235711,-0.115036,-0.382774,-0.054120,-0.515127,0.034316,-0.627684,0.146873,-0.716120,0.279226,-0.777036,0.426289,-0.808090,0.582410,-0.808090,0.729406,-0.512000,0.729406,-0.512000,0.594594,-0.477108,0.464375,-0.409702,0.347625,-0.314375,0.252298,-0.197625,0.184892,-0.067406,0.150000,0.067406,0.150000,0.197625,0.184892,0.314375,0.252298,0.409702,0.347625,0.477108,0.464375,
0.512000,0.594594,0.512000,0.729406,0.477108,0.859625,0.409702,0.976375,0.314375,1.071702,0.197625,1.139108,0.067406,1.174000,-0.067406,1.174000,-0.197625,1.139108,-0.314375,1.071702,-0.409702,0.976375,-0.477108,0.859625,-0.512000,0.729406,-0.808090,0.729406,-0.808090,0.741590,-0.777036,0.897711,-0.716120,1.044774,-0.627684,1.177127,-0.515127,1.289684,-0.382774,1.378120,
-0.235711,1.439036,-0.079590,1.470090,0.079590,1.470090,0.235711,1.439036,0.235711,1.439036,$1*%
G04 Aperture macros list end*
%TA.AperFunction,Conductor*%
%ADD10C,0.200000*%
%TD*%
%TA.AperFunction,SMDPad,CuDef*%
%ADD11R,0.700000X1.200000*%
%TD*%
%TA.AperFunction,SMDPad,CuDef*%
%ADD12R,1.000000X0.800000*%
%TD*%
%TA.AperFunction,SMDPad,CuDef*%
%ADD13R,1.000000X1.200000*%
%TD*%
%TA.AperFunction,SMDPad,CuDef*%
%ADD14R,1.000000X2.800000*%
%TD*%
%TA.AperFunction,SMDPad,CuDef*%
%ADD15R,1.300000X1.900000*%
%TD*%
%TA.AperFunction,SMDPad,CuDef*%
%ADD16R,1.900000X1.000000*%
%TD*%
%TA.AperFunction,SMDPad,CuDef*%
%ADD17RoundRect,0.130500X-0.169500X-0.130500X0.169500X-0.130500X0.169500X0.130500X-0.169500X0.130500X0*%
%TD*%
%TA.AperFunction,SMDPad,CuDef*%
%ADD18FreePoly0,90.000000*%
%TD*%
%TA.AperFunction,SMDPad,CuDef*%
%ADD19RoundRect,0.225000X-0.225000X-0.250000X0.225000X-0.250000X0.225000X0.250000X-0.225000X0.250000X0*%
%TD*%
%TA.AperFunction,ComponentPad*%
%ADD20RoundRect,0.250000X0.350000X0.625000X-0.350000X0.625000X-0.350000X-0.625000X0.350000X-0.625000X0*%
%TD*%
%TA.AperFunction,ComponentPad*%
%ADD21O,1.200000X1.750000*%
%TD*%
%TA.AperFunction,ComponentPad*%
%ADD22R,1.700000X1.700000*%
%TD*%
%TA.AperFunction,ComponentPad*%
%ADD23C,1.700000*%
%TD*%
%TA.AperFunction,ComponentPad*%
%ADD24C,2.100000*%
%TD*%
%TA.AperFunction,ComponentPad*%
%ADD25C,1.750000*%
%TD*%
%TA.AperFunction,SMDPad,CuDef*%
%ADD26RoundRect,0.135000X-0.135000X-0.185000X0.135000X-0.185000X0.135000X0.185000X-0.135000X0.185000X0*%
%TD*%
%TA.AperFunction,SMDPad,CuDef*%
%ADD27RoundRect,0.250000X-0.295000X-0.315000X0.295000X-0.315000X0.295000X0.315000X-0.295000X0.315000X0*%
%TD*%
%TA.AperFunction,SMDPad,CuDef*%
%ADD28R,2.540000X3.510000*%
%TD*%
%TA.AperFunction,ComponentPad*%
%ADD29RoundRect,0.249999X-1.250001X-1.250001X1.250001X-1.250001X1.250001X1.250001X-1.250001X1.250001X0*%
%TD*%
%TA.AperFunction,ComponentPad*%
%ADD30C,3.000000*%
%TD*%
%TA.AperFunction,ViaPad*%
%ADD31C,0.600000*%
%TD*%
G04 APERTURE END LIST*
D10*
%TO.N,-BATT*%
X119000000Y-72500000D02*
X110833800Y-85086200D01*
%TO.N,Net-(MK1-DATA)*%
X112000000Y-95500000D02*
X112000000Y-94000000D01*
%TO.N,Net-(J1-Pin_1)*%
X134000000Y-76000000D02*
X129500000Y-64500000D01*
%TO.N,Net-(J1-Pin_2)*%
X127500000Y-70000000D02*
X129000000Y-69500000D01*
%TO.N,Net-(J1-Pin_3)*%
X124000000Y-79500000D02*
X121500000Y-79500000D01*
%TO.N,Net-(J5-Pin_8)*%
X151500000Y-78500000D02*
X151500000Y-78000000D01*
%TO.N,+BATT 5v*%
X122000000Y-75000000D02*
X121500000Y-74500000D01*
%TD*%
D11*
%TO.P,J6,1,DAT2*%
%TO.N,unconnected-(J6-DAT2-Pad1)*%
X111755000Y-62690000D03*
%TO.P,J6,2,DAT3/CD*%
%TO.N,Net-(J4-Pin_16)*%
X112855000Y-62690000D03*
%TO.P,J6,3,CMD*%
%TO.N,Net-(J4-Pin_12)*%
X113955000Y-62690000D03*
%TO.P,J6,4,VDD*%
%TO.N,+BATT 3.3v*%
X115055000Y-62690000D03*
%TO.P,J6,5,CLK*%
%TO.N,Net-(J4-Pin_11)*%
X116155000Y-62690000D03*
%TO.P,J6,6,VSS*%
%TO.N,-BATT*%
X117255000Y-62690000D03*
%TO.P,J6,7,DAT0*%
%TO.N,Net-(J4-Pin_13)*%
X118355000Y-62690000D03*
%TO.P,J6,8,DAT1*%
%TO.N,unconnected-(J6-DAT1-Pad8)*%
X119455000Y-62690000D03*
%TO.P,J6,9,SHIELD*%
%TO.N,-BATT*%
X120405000Y-62690000D03*
D12*
%TO.P,J6,10*%
%TO.N,N/C*%
X121355000Y-52190000D03*
D13*
%TO.P,J6,11*%
X121355000Y-58390000D03*
D14*
X121355000Y-48040000D03*
D13*
X110205000Y-62690000D03*
D15*
X107855000Y-47590000D03*
%TD*%
D16*
%TO.P,J5,1,Pin_1*%
%TO.N,+BATT 3.3v*%
X146200000Y-56880000D03*
%TO.P,J5,2,Pin_2*%
%TO.N,unconnected-(J5-Pin_2-Pad2)*%
X149500000Y-59420000D03*
%TO.P,J5,3,Pin_3*%
%TO.N,unconnected-(J5-Pin_3-Pad3)*%
X146200000Y-61960000D03*
%TO.P,J5,4,Pin_4*%
%TO.N,unconnected-(J5-Pin_4-Pad4)*%
X149500000Y-64500000D03*
%TO.P,J5,5,Pin_5*%
%TO.N,unconnected-(J5-Pin_5-Pad5)*%
X146200000Y-67040000D03*
%TO.P,J5,6,Pin_6*%
%TO.N,unconnected-(J5-Pin_6-Pad6)*%
X149500000Y-69580000D03*
%TO.P,J5,7,Pin_7*%
%TO.N,unconnected-(J5-Pin_7-Pad7)*%
X146200000Y-72120000D03*
%TO.P,J5,8,Pin_8*%
%TO.N,Net-(J5-Pin_8)*%
X149500000Y-74660000D03*
%TO.P,J5,9,Pin_9*%
%TO.N,Net-(J5-Pin_9)*%
X146200000Y-77200000D03*
%TO.P,J5,10,Pin_10*%
%TO.N,Net-(J5-Pin_10)*%
X149500000Y-79740000D03*
%TO.P,J5,11,Pin_11*%
%TO.N,unconnected-(J5-Pin_11-Pad11)*%
X146200000Y-82280000D03*
%TO.P,J5,12,Pin_12*%
%TO.N,unconnected-(J5-Pin_12-Pad12)*%
X149500000Y-84820000D03*
%TD*%
D17*
%TO.P,MK1,1,WS*%
%TO.N,Net-(J1-Pin_1)*%
X111438000Y-96426000D03*
%TO.P,MK1,2,SEL*%
%TO.N,Net-(MK1-SEL)*%
X111438000Y-97248000D03*
D18*
%TO.P,MK1,3,GND*%
%TO.N,-BATT*%
X113000000Y-98500000D03*
D17*
%TO.P,MK1,4,BCLK*%
%TO.N,Net-(J1-Pin_2)*%
X113238000Y-97248000D03*
%TO.P,MK1,5,VDD*%
%TO.N,+BATT 3.3v*%
X113238000Y-96426000D03*
%TO.P,MK1,6,DATA*%
%TO.N,Net-(MK1-DATA)*%
X112338000Y-96426000D03*
%TD*%
D16*
%TO.P,J4,1,Pin_1*%
%TO.N,unconnected-(J4-Pin_1-Pad1)*%
X126000000Y-46800000D03*
%TO.P,J4,2,Pin_2*%
%TO.N,unconnected-(J4-Pin_2-Pad2)*%
X129300000Y-49340000D03*
%TO.P,J4,3,Pin_3*%
%TO.N,unconnected-(J4-Pin_3-Pad3)*%
X126000000Y-51880000D03*
%TO.P,J4,4,Pin_4*%
%TO.N,-BATT*%
X129300000Y-54420000D03*
%TO.P,J4,5,Pin_5*%
%TO.N,Net-(J4-Pin_5)*%
X126000000Y-56960000D03*
%TO.P,J4,6,Pin_6*%
%TO.N,Net-(J1-Pin_3)*%
X129300000Y-59500000D03*
%TO.P,J4,7,Pin_7*%
%TO.N,unconnected-(J4-Pin_7-Pad7)*%
X126000000Y-62040000D03*
%TO.P,J4,8,Pin_8*%
%TO.N,Net-(J1-Pin_1)*%
X129300000Y-64580000D03*
%TO.P,J4,9,Pin_9*%
%TO.N,unconnected-(J4-Pin_9-Pad9)*%
X126000000Y-67120000D03*
%TO.P,J4,10,Pin_10*%
%TO.N,Net-(J1-Pin_2)*%
X129300000Y-69660000D03*
%TO.P,J4,11,Pin_11*%
%TO.N,Net-(J4-Pin_11)*%
X126000000Y-72200000D03*
%TO.P,J4,12,Pin_12*%
%TO.N,Net-(J4-Pin_12)*%
X129300000Y-74740000D03*
%TO.P,J4,13,Pin_13*%
%TO.N,Net-(J4-Pin_13)*%
X126000000Y-77280000D03*
%TO.P,J4,14,Pin_14*%
%TO.N,unconnected-(J4-Pin_14-Pad14)*%
X129300000Y-79820000D03*
%TO.P,J4,15,Pin_15*%
%TO.N,unconnected-(J4-Pin_15-Pad15)*%
X126000000Y-82360000D03*
%TO.P,J4,16,Pin_16*%
%TO.N,Net-(J4-Pin_16)*%
X129300000Y-84900000D03*
%TD*%
D19*
%TO.P,C1,1*%
%TO.N,+BATT 3.3v*%
X116225000Y-96500000D03*
%TO.P,C1,2*%
%TO.N,-BATT*%
X117775000Y-96500000D03*
%TD*%
D20*
%TO.P,J3,1,Pin_1*%
%TO.N,+BATT 5v*%
X160000000Y-52950000D03*
D21*
%TO.P,J3,2,Pin_2*%
%TO.N,-BATT*%
X158000000Y-52950000D03*
%TD*%
D22*
%TO.P,J1,1,Pin_1*%
%TO.N,Net-(J1-Pin_1)*%
X121500000Y-84580000D03*
D23*
%TO.P,J1,2,Pin_2*%
%TO.N,Net-(J1-Pin_2)*%
X121500000Y-82040000D03*
%TO.P,J1,3,Pin_3*%
%TO.N,Net-(J1-Pin_3)*%
X121500000Y-79500000D03*
%TO.P,J1,4,Pin_4*%
%TO.N,unconnected-(J1-Pin_4-Pad4)*%
X121500000Y-76960000D03*
%TO.P,J1,5,Pin_5*%
%TO.N,+BATT 5v*%
X121500000Y-74420000D03*
%TO.P,J1,6,Pin_6*%
%TO.N,-BATT*%
X121500000Y-71880000D03*
%TO.P,J1,7,Pin_7*%
%TO.N,+BATT 5v*%
X121500000Y-69340000D03*
%TD*%
D24*
%TO.P,SW2,*%
%TO.N,*%
X159010000Y-69500000D03*
X159010000Y-76510000D03*
D25*
%TO.P,SW2,1,1*%
%TO.N,-BATT*%
X161500000Y-70750000D03*
%TO.P,SW2,2,2*%
%TO.N,Net-(J5-Pin_9)*%
X161500000Y-75250000D03*
%TD*%
D26*
%TO.P,R1,1*%
%TO.N,Net-(MK1-DATA)*%
X108430000Y-96810000D03*
%TO.P,R1,2*%
%TO.N,Net-(J4-Pin_5)*%
X109450000Y-96810000D03*
%TD*%
D27*
%TO.P,C2,1*%
%TO.N,+BATT 3.3v*%
X116295000Y-98500000D03*
%TO.P,C2,2*%
%TO.N,-BATT*%
X117725000Y-98500000D03*
%TD*%
D28*
%TO.P,BT1,1,+*%
%TO.N,+BATT 3.3v*%
X151680000Y-97000000D03*
%TO.P,BT1,2,-*%
%TO.N,-BATT*%
X122320000Y-97000000D03*
%TD*%
D24*
%TO.P,SW3,*%
%TO.N,*%
X159047500Y-89975000D03*
X159047500Y-96985000D03*
D25*
%TO.P,SW3,1,1*%
%TO.N,-BATT*%
X161537500Y-91225000D03*
%TO.P,SW3,2,2*%
%TO.N,Net-(J5-Pin_10)*%
X161537500Y-95725000D03*
%TD*%
D26*
%TO.P,R2,1*%
%TO.N,-BATT*%
X108430000Y-98560000D03*
%TO.P,R2,2*%
%TO.N,Net-(MK1-SEL)*%
X109450000Y-98560000D03*
%TD*%
D29*
%TO.P,BT2,1,+*%
%TO.N,+BATT 5v*%
X110780000Y-117000000D03*
D30*
%TO.P,BT2,2,-*%
%TO.N,-BATT*%
X110780000Y-129700000D03*
%TD*%
D24*
%TO.P,SW1,*%
%TO.N,*%
X159047500Y-99975000D03*
X159047500Y-106985000D03*
D25*
%TO.P,SW1,1,1*%
%TO.N,-BATT*%
X161537500Y-101225000D03*
%TO.P,SW1,2,2*%
%TO.N,Net-(J5-Pin_8)*%
X161537500Y-105725000D03*
%TD*%
D31*
%TO.N,Net-(J1-Pin_2)*%
X127500000Y-70000000D03*
X114500000Y-95500000D03*
X114248000Y-97248000D03*
%TO.N,Net-(MK1-DATA)*%
X110000000Y-95000000D03*
X112000000Y-94000000D03*
%TO.N,Net-(J1-Pin_1)*%
X134500000Y-78000000D03*
X123000000Y-86500000D03*
X125000000Y-88000000D03*
X134000000Y-76000000D03*
%TO.N,Net-(J1-Pin_3)*%
X127000000Y-79500000D03*
X131500000Y-77500000D03*
X134000000Y-74000000D03*
X124000000Y-79500000D03*
%TO.N,Net-(J4-Pin_11)*%
X116500000Y-64000000D03*
X126000000Y-73500000D03*
%TO.N,Net-(J4-Pin_16)*%
X128000000Y-81000000D03*
X130516696Y-83973286D03*
%TO.N,Net-(J4-Pin_12)*%
X131000000Y-74500000D03*
X118000000Y-66500000D03*
%TO.N,Net-(J5-Pin_9)*%
X148000000Y-77000000D03*
%TO.N,Net-(J5-Pin_8)*%
X151500000Y-78500000D03*
X154000000Y-81000000D03*
%TO.N,Net-(J5-Pin_10)*%
X147500000Y-80500000D03*
X152500000Y-82500000D03*
%TO.N,Net-(J4-Pin_13)*%
X120500000Y-61500000D03*
X121000000Y-64000000D03*
%TO.N,-BATT*%
X132000000Y-54500000D03*
X115500000Y-100500000D03*
X114000000Y-100500000D03*
X119000000Y-72500000D03*
%TO.N,+BATT 3.3v*%
X116000000Y-90104200D03*
X138250000Y-62750000D03*
X116532500Y-64967500D03*
%TO.N,+BATT 5v*%
X123500000Y-73000000D03*
X123000000Y-75500000D03*
X144399200Y-86899200D03*
%TD*%
D10*
%TO.N,Net-(J1-Pin_2)*%
X114248000Y-97248000D02*
X113238000Y-97248000D01*
X114500000Y-89040000D02*
X121500000Y-82040000D01*
X114500000Y-89040000D02*
X114500000Y-95500000D01*
%TO.N,Net-(MK1-DATA)*%
X112000000Y-95500000D02*
X112338000Y-95838000D01*
X108430000Y-96810000D02*
X108430000Y-96570000D01*
X112338000Y-96426000D02*
X112338000Y-95838000D01*
X108430000Y-96570000D02*
X110000000Y-95000000D01*
%TO.N,Net-(J1-Pin_1)*%
X128258400Y-88000000D02*
X134500000Y-81758400D01*
X121500000Y-85000000D02*
X123000000Y-86500000D01*
X111395800Y-90511914D02*
X121021914Y-80885800D01*
X111438000Y-96426000D02*
X111395800Y-96383800D01*
X134500000Y-81758400D02*
X134500000Y-78000000D01*
X125000000Y-88000000D02*
X128258400Y-88000000D01*
X122654200Y-81561914D02*
X122654200Y-83425800D01*
X122654200Y-83425800D02*
X121500000Y-84580000D01*
X121500000Y-84580000D02*
X121500000Y-85000000D01*
X121978086Y-80885800D02*
X122654200Y-81561914D01*
X121021914Y-80885800D02*
X121978086Y-80885800D01*
X111395800Y-96383800D02*
X111395800Y-90511914D01*
%TO.N,Net-(MK1-SEL)*%
X110126000Y-98560000D02*
X111438000Y-97248000D01*
X109450000Y-98560000D02*
X110126000Y-98560000D01*
%TO.N,Net-(J4-Pin_5)*%
X116250800Y-61785800D02*
X120904000Y-57132600D01*
X107855800Y-66839200D02*
X111100800Y-63594200D01*
X108109336Y-97434200D02*
X107855800Y-97180664D01*
X120904000Y-57132600D02*
X120904000Y-54148164D01*
X120963164Y-54089000D02*
X123129000Y-54089000D01*
X123129000Y-54089000D02*
X126000000Y-56960000D01*
X108825800Y-97434200D02*
X108109336Y-97434200D01*
X107855800Y-97180664D02*
X107855800Y-66839200D01*
X111100800Y-63594200D02*
X111100800Y-61785800D01*
X109450000Y-96810000D02*
X108825800Y-97434200D01*
X120904000Y-54148164D02*
X120963164Y-54089000D01*
X111100800Y-61785800D02*
X116250800Y-61785800D01*
%TO.N,Net-(J1-Pin_3)*%
X131500000Y-77500000D02*
X129354468Y-77500000D01*
X129354468Y-77500000D02*
X127354468Y-79500000D01*
X133500000Y-71500000D02*
X133500000Y-63700000D01*
X134000000Y-72000000D02*
X133500000Y-71500000D01*
X133500000Y-63700000D02*
X129300000Y-59500000D01*
X134000000Y-74000000D02*
X134000000Y-72000000D01*
X127354468Y-79500000D02*
X127000000Y-79500000D01*
%TO.N,Net-(J4-Pin_11)*%
X126000000Y-72200000D02*
X126000000Y-73500000D01*
X116155000Y-62690000D02*
X116155000Y-63655000D01*
X116155000Y-63655000D02*
X116500000Y-64000000D01*
%TO.N,Net-(J4-Pin_16)*%
X129300000Y-84900000D02*
X129589982Y-84900000D01*
X112855000Y-64867286D02*
X112855000Y-62690000D01*
X121021914Y-73034200D02*
X112855000Y-64867286D01*
X124000000Y-75287714D02*
X121746486Y-73034200D01*
X124000000Y-78301600D02*
X124000000Y-75287714D01*
X121746486Y-73034200D02*
X121021914Y-73034200D01*
X129589982Y-84900000D02*
X130516696Y-83973286D01*
X128000000Y-81000000D02*
X126698400Y-81000000D01*
X126698400Y-81000000D02*
X124000000Y-78301600D01*
%TO.N,Net-(J4-Pin_12)*%
X131000000Y-74500000D02*
X129540000Y-74500000D01*
X116965000Y-66500000D02*
X118000000Y-66500000D01*
X113955000Y-62690000D02*
X113955000Y-63490000D01*
X129540000Y-74500000D02*
X129300000Y-74740000D01*
X113955000Y-63490000D02*
X116965000Y-66500000D01*
%TO.N,Net-(J5-Pin_9)*%
X146200000Y-77200000D02*
X146400000Y-77000000D01*
X146400000Y-77000000D02*
X148000000Y-77000000D01*
%TO.N,Net-(J5-Pin_8)*%
X162716700Y-89716700D02*
X162716700Y-104545800D01*
X154000000Y-81000000D02*
X162716700Y-89716700D01*
X162716700Y-104545800D02*
X161537500Y-105725000D01*
X149500000Y-74660000D02*
X151467426Y-76627426D01*
X151467426Y-76627426D02*
X151467426Y-77895800D01*
%TO.N,Net-(J5-Pin_10)*%
X149500000Y-79740000D02*
X148260000Y-79740000D01*
X152500000Y-86687500D02*
X152500000Y-82500000D01*
X161537500Y-95725000D02*
X152500000Y-86687500D01*
X148260000Y-79740000D02*
X147500000Y-80500000D01*
%TO.N,Net-(J4-Pin_13)*%
X118355000Y-62231600D02*
X118355000Y-62690000D01*
X126000000Y-77280000D02*
X124745800Y-76025800D01*
X120500000Y-61500000D02*
X119086600Y-61500000D01*
X119086600Y-61500000D02*
X118355000Y-62231600D01*
X124745800Y-76025800D02*
X124745800Y-67745800D01*
X121000000Y-64000000D02*
X124745800Y-67745800D01*
%TO.N,-BATT*%
X107374000Y-99616000D02*
X108430000Y-98560000D01*
X115725000Y-100500000D02*
X115500000Y-100500000D01*
X117700800Y-63594200D02*
X120215800Y-63594200D01*
X129300000Y-54420000D02*
X129300000Y-55718400D01*
X121820000Y-96500000D02*
X122320000Y-97000000D01*
X129300000Y-54420000D02*
X131920000Y-54420000D01*
X113000000Y-99500000D02*
X113000000Y-98500000D01*
X107374000Y-126294000D02*
X107374000Y-99616000D01*
X117255000Y-62690000D02*
X117255000Y-63148400D01*
X118500000Y-66145532D02*
X118500000Y-65354468D01*
X110780000Y-129700000D02*
X107374000Y-126294000D01*
X109054200Y-97935800D02*
X109638178Y-97935800D01*
X120215800Y-63594200D02*
X120405000Y-63405000D01*
X121500000Y-71880000D02*
X118500000Y-68880000D01*
X113000000Y-98979808D02*
X113000000Y-98500000D01*
X118500000Y-66854468D02*
X118604200Y-66750268D01*
X118500000Y-64645532D02*
X118500000Y-63594200D01*
X114000000Y-100500000D02*
X113000000Y-99500000D01*
X108430000Y-98560000D02*
X109054200Y-97935800D01*
X129300000Y-55718400D02*
X122328400Y-62690000D01*
X118604200Y-65250268D02*
X118604200Y-64749732D01*
X117725000Y-98500000D02*
X120820000Y-98500000D01*
X118500000Y-68880000D02*
X118500000Y-66854468D01*
X109638178Y-97935800D02*
X110833800Y-96740178D01*
X120820000Y-98500000D02*
X122320000Y-97000000D01*
X120405000Y-63405000D02*
X120405000Y-62690000D01*
X122328400Y-62690000D02*
X120405000Y-62690000D01*
X110833800Y-96740178D02*
X110833800Y-85086200D01*
X118500000Y-65354468D02*
X118604200Y-65250268D01*
X112479808Y-99500000D02*
X113000000Y-98979808D01*
X118604200Y-66750268D02*
X118604200Y-66249732D01*
X117775000Y-96500000D02*
X121820000Y-96500000D01*
X108430000Y-98560000D02*
X109370000Y-99500000D01*
X117725000Y-98500000D02*
X115725000Y-100500000D01*
X118604200Y-64749732D02*
X118500000Y-64645532D01*
X131920000Y-54420000D02*
X132000000Y-54500000D01*
X118604200Y-66249732D02*
X118500000Y-66145532D01*
X109370000Y-99500000D02*
X112479808Y-99500000D01*
X117255000Y-63148400D02*
X117700800Y-63594200D01*
%TO.N,+BATT 3.3v*%
X144120000Y-56880000D02*
X146200000Y-56880000D01*
X114785000Y-98500000D02*
X115643375Y-98500000D01*
X115643375Y-98500000D02*
X115969188Y-98825813D01*
X115055000Y-63490000D02*
X116532500Y-64967500D01*
X114785000Y-102221619D02*
X114785000Y-98500000D01*
X113065826Y-118804200D02*
X109293516Y-118804200D01*
X151680000Y-97000000D02*
X134870026Y-97000000D01*
X113238000Y-96426000D02*
X116151000Y-96426000D01*
X108975800Y-118486484D02*
X108975800Y-108030819D01*
X108975800Y-108030819D02*
X114785000Y-102221619D01*
X116295000Y-98500000D02*
X116295000Y-96570000D01*
X115055000Y-62690000D02*
X115055000Y-63490000D01*
X116532500Y-64967500D02*
X116565000Y-65000000D01*
X109293516Y-118804200D02*
X108975800Y-118486484D01*
X116225000Y-96500000D02*
X116225000Y-90329200D01*
X116225000Y-90329200D02*
X116000000Y-90104200D01*
X116295000Y-96570000D02*
X116225000Y-96500000D01*
X134870026Y-97000000D02*
X113065826Y-118804200D01*
X116151000Y-96426000D02*
X116225000Y-96500000D01*
X138250000Y-62750000D02*
X144120000Y-56880000D01*
%TO.N,+BATT 5v*%
X121500000Y-69340000D02*
X123500000Y-71340000D01*
X157374000Y-55576000D02*
X160000000Y-52950000D01*
X114298400Y-117000000D02*
X144399200Y-86899200D01*
X144399200Y-86899200D02*
X157374000Y-73924400D01*
X110780000Y-117000000D02*
X114298400Y-117000000D01*
X121920000Y-74420000D02*
X123000000Y-75500000D01*
X121500000Y-74420000D02*
X121920000Y-74420000D01*
X157374000Y-73924400D02*
X157374000Y-55576000D01*
X123500000Y-71340000D02*
X123500000Y-73000000D01*
%TD*%
M02*
