%TF.GenerationSoftware,KiCad,Pcbnew,9.0.6*%
%TF.CreationDate,2025-12-21T07:11:03-06:00*%
%TF.ProjectId,FeatheAudio,46656174-6865-4417-9564-696f2e6b6963,rev?*%
%TF.SameCoordinates,Original*%
%TF.FileFunction,Legend,Bot*%
%TF.FilePolarity,Positive*%
%FSLAX46Y46*%
G04 Gerber Fmt 4.6, Leading zero omitted, Abs format (unit mm)*
G04 Created by KiCad (PCBNEW 9.0.6) date 2025-12-21 07:11:03*
%MOMM*%
%LPD*%
G01*
G04 APERTURE LIST*
G04 Aperture macros list*
%AMRoundRect*
0 Rectangle with rounded corners*
0 $1 Rounding radius*
0 $2 $3 $4 $5 $6 $7 $8 $9 X,Y pos of 4 corners*
0 Add a 4 corners polygon primitive as box body*
4,1,4,$2,$3,$4,$5,$6,$7,$8,$9,$2,$3,0*
0 Add four circle primitives for the rounded corners*
1,1,$1+$1,$2,$3*
1,1,$1+$1,$4,$5*
1,1,$1+$1,$6,$7*
1,1,$1+$1,$8,$9*
0 Add four rect primitives between the rounded corners*
20,1,$1+$1,$2,$3,$4,$5,0*
20,1,$1+$1,$4,$5,$6,$7,0*
20,1,$1+$1,$6,$7,$8,$9,0*
20,1,$1+$1,$8,$9,$2,$3,0*%
G04 Aperture macros list end*
%ADD10C,0.100000*%
%ADD11C,0.500000*%
%ADD12RoundRect,0.250000X0.350000X0.625000X-0.350000X0.625000X-0.350000X-0.625000X0.350000X-0.625000X0*%
%ADD13O,1.200000X1.750000*%
%ADD14R,1.700000X1.700000*%
%ADD15C,1.700000*%
%ADD16C,2.100000*%
%ADD17C,1.750000*%
%ADD18C,3.450000*%
%ADD19RoundRect,0.249999X-1.250001X-1.250001X1.250001X-1.250001X1.250001X1.250001X-1.250001X1.250001X0*%
%ADD20C,3.000000*%
G04 APERTURE END LIST*
D10*
X145910400Y-105310262D02*
X145910400Y-103310262D01*
X145910400Y-103310262D02*
X145434210Y-103310262D01*
X145434210Y-103310262D02*
X145148495Y-103405500D01*
X145148495Y-103405500D02*
X144958019Y-103595976D01*
X144958019Y-103595976D02*
X144862781Y-103786452D01*
X144862781Y-103786452D02*
X144767543Y-104167404D01*
X144767543Y-104167404D02*
X144767543Y-104453119D01*
X144767543Y-104453119D02*
X144862781Y-104834071D01*
X144862781Y-104834071D02*
X144958019Y-105024547D01*
X144958019Y-105024547D02*
X145148495Y-105215024D01*
X145148495Y-105215024D02*
X145434210Y-105310262D01*
X145434210Y-105310262D02*
X145910400Y-105310262D01*
X143148495Y-105215024D02*
X143338971Y-105310262D01*
X143338971Y-105310262D02*
X143719924Y-105310262D01*
X143719924Y-105310262D02*
X143910400Y-105215024D01*
X143910400Y-105215024D02*
X144005638Y-105024547D01*
X144005638Y-105024547D02*
X144005638Y-104262643D01*
X144005638Y-104262643D02*
X143910400Y-104072166D01*
X143910400Y-104072166D02*
X143719924Y-103976928D01*
X143719924Y-103976928D02*
X143338971Y-103976928D01*
X143338971Y-103976928D02*
X143148495Y-104072166D01*
X143148495Y-104072166D02*
X143053257Y-104262643D01*
X143053257Y-104262643D02*
X143053257Y-104453119D01*
X143053257Y-104453119D02*
X144005638Y-104643595D01*
X142291352Y-105215024D02*
X142100876Y-105310262D01*
X142100876Y-105310262D02*
X141719924Y-105310262D01*
X141719924Y-105310262D02*
X141529447Y-105215024D01*
X141529447Y-105215024D02*
X141434209Y-105024547D01*
X141434209Y-105024547D02*
X141434209Y-104929309D01*
X141434209Y-104929309D02*
X141529447Y-104738833D01*
X141529447Y-104738833D02*
X141719924Y-104643595D01*
X141719924Y-104643595D02*
X142005638Y-104643595D01*
X142005638Y-104643595D02*
X142196114Y-104548357D01*
X142196114Y-104548357D02*
X142291352Y-104357881D01*
X142291352Y-104357881D02*
X142291352Y-104262643D01*
X142291352Y-104262643D02*
X142196114Y-104072166D01*
X142196114Y-104072166D02*
X142005638Y-103976928D01*
X142005638Y-103976928D02*
X141719924Y-103976928D01*
X141719924Y-103976928D02*
X141529447Y-104072166D01*
X140577066Y-105310262D02*
X140577066Y-103976928D01*
X140577066Y-103310262D02*
X140672304Y-103405500D01*
X140672304Y-103405500D02*
X140577066Y-103500738D01*
X140577066Y-103500738D02*
X140481828Y-103405500D01*
X140481828Y-103405500D02*
X140577066Y-103310262D01*
X140577066Y-103310262D02*
X140577066Y-103500738D01*
X138767542Y-103976928D02*
X138767542Y-105595976D01*
X138767542Y-105595976D02*
X138862780Y-105786452D01*
X138862780Y-105786452D02*
X138958018Y-105881690D01*
X138958018Y-105881690D02*
X139148495Y-105976928D01*
X139148495Y-105976928D02*
X139434209Y-105976928D01*
X139434209Y-105976928D02*
X139624685Y-105881690D01*
X138767542Y-105215024D02*
X138958018Y-105310262D01*
X138958018Y-105310262D02*
X139338971Y-105310262D01*
X139338971Y-105310262D02*
X139529447Y-105215024D01*
X139529447Y-105215024D02*
X139624685Y-105119785D01*
X139624685Y-105119785D02*
X139719923Y-104929309D01*
X139719923Y-104929309D02*
X139719923Y-104357881D01*
X139719923Y-104357881D02*
X139624685Y-104167404D01*
X139624685Y-104167404D02*
X139529447Y-104072166D01*
X139529447Y-104072166D02*
X139338971Y-103976928D01*
X139338971Y-103976928D02*
X138958018Y-103976928D01*
X138958018Y-103976928D02*
X138767542Y-104072166D01*
X137815161Y-103976928D02*
X137815161Y-105310262D01*
X137815161Y-104167404D02*
X137719923Y-104072166D01*
X137719923Y-104072166D02*
X137529447Y-103976928D01*
X137529447Y-103976928D02*
X137243732Y-103976928D01*
X137243732Y-103976928D02*
X137053256Y-104072166D01*
X137053256Y-104072166D02*
X136958018Y-104262643D01*
X136958018Y-104262643D02*
X136958018Y-105310262D01*
X135243732Y-105215024D02*
X135434208Y-105310262D01*
X135434208Y-105310262D02*
X135815161Y-105310262D01*
X135815161Y-105310262D02*
X136005637Y-105215024D01*
X136005637Y-105215024D02*
X136100875Y-105024547D01*
X136100875Y-105024547D02*
X136100875Y-104262643D01*
X136100875Y-104262643D02*
X136005637Y-104072166D01*
X136005637Y-104072166D02*
X135815161Y-103976928D01*
X135815161Y-103976928D02*
X135434208Y-103976928D01*
X135434208Y-103976928D02*
X135243732Y-104072166D01*
X135243732Y-104072166D02*
X135148494Y-104262643D01*
X135148494Y-104262643D02*
X135148494Y-104453119D01*
X135148494Y-104453119D02*
X136100875Y-104643595D01*
X133434208Y-105310262D02*
X133434208Y-103310262D01*
X133434208Y-105215024D02*
X133624684Y-105310262D01*
X133624684Y-105310262D02*
X134005637Y-105310262D01*
X134005637Y-105310262D02*
X134196113Y-105215024D01*
X134196113Y-105215024D02*
X134291351Y-105119785D01*
X134291351Y-105119785D02*
X134386589Y-104929309D01*
X134386589Y-104929309D02*
X134386589Y-104357881D01*
X134386589Y-104357881D02*
X134291351Y-104167404D01*
X134291351Y-104167404D02*
X134196113Y-104072166D01*
X134196113Y-104072166D02*
X134005637Y-103976928D01*
X134005637Y-103976928D02*
X133624684Y-103976928D01*
X133624684Y-103976928D02*
X133434208Y-104072166D01*
X130958017Y-105310262D02*
X130958017Y-103310262D01*
X130958017Y-104072166D02*
X130767541Y-103976928D01*
X130767541Y-103976928D02*
X130386588Y-103976928D01*
X130386588Y-103976928D02*
X130196112Y-104072166D01*
X130196112Y-104072166D02*
X130100874Y-104167404D01*
X130100874Y-104167404D02*
X130005636Y-104357881D01*
X130005636Y-104357881D02*
X130005636Y-104929309D01*
X130005636Y-104929309D02*
X130100874Y-105119785D01*
X130100874Y-105119785D02*
X130196112Y-105215024D01*
X130196112Y-105215024D02*
X130386588Y-105310262D01*
X130386588Y-105310262D02*
X130767541Y-105310262D01*
X130767541Y-105310262D02*
X130958017Y-105215024D01*
X129338969Y-103976928D02*
X128862779Y-105310262D01*
X128386588Y-103976928D02*
X128862779Y-105310262D01*
X128862779Y-105310262D02*
X129053255Y-105786452D01*
X129053255Y-105786452D02*
X129148493Y-105881690D01*
X129148493Y-105881690D02*
X129338969Y-105976928D01*
X127624683Y-105119785D02*
X127529445Y-105215024D01*
X127529445Y-105215024D02*
X127624683Y-105310262D01*
X127624683Y-105310262D02*
X127719921Y-105215024D01*
X127719921Y-105215024D02*
X127624683Y-105119785D01*
X127624683Y-105119785D02*
X127624683Y-105310262D01*
X127624683Y-104072166D02*
X127529445Y-104167404D01*
X127529445Y-104167404D02*
X127624683Y-104262643D01*
X127624683Y-104262643D02*
X127719921Y-104167404D01*
X127719921Y-104167404D02*
X127624683Y-104072166D01*
X127624683Y-104072166D02*
X127624683Y-104262643D01*
X141624684Y-106530150D02*
X140481827Y-106530150D01*
X141053256Y-108530150D02*
X141053256Y-106530150D01*
X139815160Y-108530150D02*
X139815160Y-106530150D01*
X139815160Y-106530150D02*
X139148493Y-107958721D01*
X139148493Y-107958721D02*
X138481827Y-106530150D01*
X138481827Y-106530150D02*
X138481827Y-108530150D01*
X136386589Y-108530150D02*
X137053256Y-107577769D01*
X137529446Y-108530150D02*
X137529446Y-106530150D01*
X137529446Y-106530150D02*
X136767541Y-106530150D01*
X136767541Y-106530150D02*
X136577065Y-106625388D01*
X136577065Y-106625388D02*
X136481827Y-106720626D01*
X136481827Y-106720626D02*
X136386589Y-106911102D01*
X136386589Y-106911102D02*
X136386589Y-107196816D01*
X136386589Y-107196816D02*
X136481827Y-107387292D01*
X136481827Y-107387292D02*
X136577065Y-107482531D01*
X136577065Y-107482531D02*
X136767541Y-107577769D01*
X136767541Y-107577769D02*
X137529446Y-107577769D01*
X135529446Y-108530150D02*
X135529446Y-106530150D01*
X134672303Y-108530150D02*
X134672303Y-107482531D01*
X134672303Y-107482531D02*
X134767541Y-107292054D01*
X134767541Y-107292054D02*
X134958017Y-107196816D01*
X134958017Y-107196816D02*
X135243732Y-107196816D01*
X135243732Y-107196816D02*
X135434208Y-107292054D01*
X135434208Y-107292054D02*
X135529446Y-107387292D01*
X133815160Y-106720626D02*
X133719922Y-106625388D01*
X133719922Y-106625388D02*
X133529446Y-106530150D01*
X133529446Y-106530150D02*
X133053255Y-106530150D01*
X133053255Y-106530150D02*
X132862779Y-106625388D01*
X132862779Y-106625388D02*
X132767541Y-106720626D01*
X132767541Y-106720626D02*
X132672303Y-106911102D01*
X132672303Y-106911102D02*
X132672303Y-107101578D01*
X132672303Y-107101578D02*
X132767541Y-107387292D01*
X132767541Y-107387292D02*
X133910398Y-108530150D01*
X133910398Y-108530150D02*
X132672303Y-108530150D01*
X131434208Y-106530150D02*
X131243731Y-106530150D01*
X131243731Y-106530150D02*
X131053255Y-106625388D01*
X131053255Y-106625388D02*
X130958017Y-106720626D01*
X130958017Y-106720626D02*
X130862779Y-106911102D01*
X130862779Y-106911102D02*
X130767541Y-107292054D01*
X130767541Y-107292054D02*
X130767541Y-107768245D01*
X130767541Y-107768245D02*
X130862779Y-108149197D01*
X130862779Y-108149197D02*
X130958017Y-108339673D01*
X130958017Y-108339673D02*
X131053255Y-108434912D01*
X131053255Y-108434912D02*
X131243731Y-108530150D01*
X131243731Y-108530150D02*
X131434208Y-108530150D01*
X131434208Y-108530150D02*
X131624684Y-108434912D01*
X131624684Y-108434912D02*
X131719922Y-108339673D01*
X131719922Y-108339673D02*
X131815160Y-108149197D01*
X131815160Y-108149197D02*
X131910398Y-107768245D01*
X131910398Y-107768245D02*
X131910398Y-107292054D01*
X131910398Y-107292054D02*
X131815160Y-106911102D01*
X131815160Y-106911102D02*
X131719922Y-106720626D01*
X131719922Y-106720626D02*
X131624684Y-106625388D01*
X131624684Y-106625388D02*
X131434208Y-106530150D01*
X149243734Y-109750038D02*
X148100877Y-109750038D01*
X148672306Y-111750038D02*
X148672306Y-109750038D01*
X147434210Y-111750038D02*
X147434210Y-109750038D01*
X147434210Y-109750038D02*
X146767543Y-111178609D01*
X146767543Y-111178609D02*
X146100877Y-109750038D01*
X146100877Y-109750038D02*
X146100877Y-111750038D01*
X144005639Y-111750038D02*
X144672306Y-110797657D01*
X145148496Y-111750038D02*
X145148496Y-109750038D01*
X145148496Y-109750038D02*
X144386591Y-109750038D01*
X144386591Y-109750038D02*
X144196115Y-109845276D01*
X144196115Y-109845276D02*
X144100877Y-109940514D01*
X144100877Y-109940514D02*
X144005639Y-110130990D01*
X144005639Y-110130990D02*
X144005639Y-110416704D01*
X144005639Y-110416704D02*
X144100877Y-110607180D01*
X144100877Y-110607180D02*
X144196115Y-110702419D01*
X144196115Y-110702419D02*
X144386591Y-110797657D01*
X144386591Y-110797657D02*
X145148496Y-110797657D01*
X143148496Y-111750038D02*
X143148496Y-109750038D01*
X142291353Y-111750038D02*
X142291353Y-110702419D01*
X142291353Y-110702419D02*
X142386591Y-110511942D01*
X142386591Y-110511942D02*
X142577067Y-110416704D01*
X142577067Y-110416704D02*
X142862782Y-110416704D01*
X142862782Y-110416704D02*
X143053258Y-110511942D01*
X143053258Y-110511942D02*
X143148496Y-110607180D01*
X141434210Y-109940514D02*
X141338972Y-109845276D01*
X141338972Y-109845276D02*
X141148496Y-109750038D01*
X141148496Y-109750038D02*
X140672305Y-109750038D01*
X140672305Y-109750038D02*
X140481829Y-109845276D01*
X140481829Y-109845276D02*
X140386591Y-109940514D01*
X140386591Y-109940514D02*
X140291353Y-110130990D01*
X140291353Y-110130990D02*
X140291353Y-110321466D01*
X140291353Y-110321466D02*
X140386591Y-110607180D01*
X140386591Y-110607180D02*
X141529448Y-111750038D01*
X141529448Y-111750038D02*
X140291353Y-111750038D01*
X139053258Y-109750038D02*
X138862781Y-109750038D01*
X138862781Y-109750038D02*
X138672305Y-109845276D01*
X138672305Y-109845276D02*
X138577067Y-109940514D01*
X138577067Y-109940514D02*
X138481829Y-110130990D01*
X138481829Y-110130990D02*
X138386591Y-110511942D01*
X138386591Y-110511942D02*
X138386591Y-110988133D01*
X138386591Y-110988133D02*
X138481829Y-111369085D01*
X138481829Y-111369085D02*
X138577067Y-111559561D01*
X138577067Y-111559561D02*
X138672305Y-111654800D01*
X138672305Y-111654800D02*
X138862781Y-111750038D01*
X138862781Y-111750038D02*
X139053258Y-111750038D01*
X139053258Y-111750038D02*
X139243734Y-111654800D01*
X139243734Y-111654800D02*
X139338972Y-111559561D01*
X139338972Y-111559561D02*
X139434210Y-111369085D01*
X139434210Y-111369085D02*
X139529448Y-110988133D01*
X139529448Y-110988133D02*
X139529448Y-110511942D01*
X139529448Y-110511942D02*
X139434210Y-110130990D01*
X139434210Y-110130990D02*
X139338972Y-109940514D01*
X139338972Y-109940514D02*
X139243734Y-109845276D01*
X139243734Y-109845276D02*
X139053258Y-109750038D01*
X137529448Y-111559561D02*
X137434210Y-111654800D01*
X137434210Y-111654800D02*
X137529448Y-111750038D01*
X137529448Y-111750038D02*
X137624686Y-111654800D01*
X137624686Y-111654800D02*
X137529448Y-111559561D01*
X137529448Y-111559561D02*
X137529448Y-111750038D01*
X136577067Y-111750038D02*
X136577067Y-109750038D01*
X136577067Y-110511942D02*
X136386591Y-110416704D01*
X136386591Y-110416704D02*
X136005638Y-110416704D01*
X136005638Y-110416704D02*
X135815162Y-110511942D01*
X135815162Y-110511942D02*
X135719924Y-110607180D01*
X135719924Y-110607180D02*
X135624686Y-110797657D01*
X135624686Y-110797657D02*
X135624686Y-111369085D01*
X135624686Y-111369085D02*
X135719924Y-111559561D01*
X135719924Y-111559561D02*
X135815162Y-111654800D01*
X135815162Y-111654800D02*
X136005638Y-111750038D01*
X136005638Y-111750038D02*
X136386591Y-111750038D01*
X136386591Y-111750038D02*
X136577067Y-111654800D01*
X134481829Y-111750038D02*
X134672305Y-111654800D01*
X134672305Y-111654800D02*
X134767543Y-111464323D01*
X134767543Y-111464323D02*
X134767543Y-109750038D01*
X133434210Y-111750038D02*
X133624686Y-111654800D01*
X133624686Y-111654800D02*
X133719924Y-111559561D01*
X133719924Y-111559561D02*
X133815162Y-111369085D01*
X133815162Y-111369085D02*
X133815162Y-110797657D01*
X133815162Y-110797657D02*
X133719924Y-110607180D01*
X133719924Y-110607180D02*
X133624686Y-110511942D01*
X133624686Y-110511942D02*
X133434210Y-110416704D01*
X133434210Y-110416704D02*
X133148495Y-110416704D01*
X133148495Y-110416704D02*
X132958019Y-110511942D01*
X132958019Y-110511942D02*
X132862781Y-110607180D01*
X132862781Y-110607180D02*
X132767543Y-110797657D01*
X132767543Y-110797657D02*
X132767543Y-111369085D01*
X132767543Y-111369085D02*
X132862781Y-111559561D01*
X132862781Y-111559561D02*
X132958019Y-111654800D01*
X132958019Y-111654800D02*
X133148495Y-111750038D01*
X133148495Y-111750038D02*
X133434210Y-111750038D01*
X131053257Y-110416704D02*
X131053257Y-112035752D01*
X131053257Y-112035752D02*
X131148495Y-112226228D01*
X131148495Y-112226228D02*
X131243733Y-112321466D01*
X131243733Y-112321466D02*
X131434210Y-112416704D01*
X131434210Y-112416704D02*
X131719924Y-112416704D01*
X131719924Y-112416704D02*
X131910400Y-112321466D01*
X131053257Y-111654800D02*
X131243733Y-111750038D01*
X131243733Y-111750038D02*
X131624686Y-111750038D01*
X131624686Y-111750038D02*
X131815162Y-111654800D01*
X131815162Y-111654800D02*
X131910400Y-111559561D01*
X131910400Y-111559561D02*
X132005638Y-111369085D01*
X132005638Y-111369085D02*
X132005638Y-110797657D01*
X132005638Y-110797657D02*
X131910400Y-110607180D01*
X131910400Y-110607180D02*
X131815162Y-110511942D01*
X131815162Y-110511942D02*
X131624686Y-110416704D01*
X131624686Y-110416704D02*
X131243733Y-110416704D01*
X131243733Y-110416704D02*
X131053257Y-110511942D01*
X130196114Y-111654800D02*
X130005638Y-111750038D01*
X130005638Y-111750038D02*
X129624686Y-111750038D01*
X129624686Y-111750038D02*
X129434209Y-111654800D01*
X129434209Y-111654800D02*
X129338971Y-111464323D01*
X129338971Y-111464323D02*
X129338971Y-111369085D01*
X129338971Y-111369085D02*
X129434209Y-111178609D01*
X129434209Y-111178609D02*
X129624686Y-111083371D01*
X129624686Y-111083371D02*
X129910400Y-111083371D01*
X129910400Y-111083371D02*
X130100876Y-110988133D01*
X130100876Y-110988133D02*
X130196114Y-110797657D01*
X130196114Y-110797657D02*
X130196114Y-110702419D01*
X130196114Y-110702419D02*
X130100876Y-110511942D01*
X130100876Y-110511942D02*
X129910400Y-110416704D01*
X129910400Y-110416704D02*
X129624686Y-110416704D01*
X129624686Y-110416704D02*
X129434209Y-110511942D01*
X128481828Y-110416704D02*
X128481828Y-112416704D01*
X128481828Y-110511942D02*
X128291352Y-110416704D01*
X128291352Y-110416704D02*
X127910399Y-110416704D01*
X127910399Y-110416704D02*
X127719923Y-110511942D01*
X127719923Y-110511942D02*
X127624685Y-110607180D01*
X127624685Y-110607180D02*
X127529447Y-110797657D01*
X127529447Y-110797657D02*
X127529447Y-111369085D01*
X127529447Y-111369085D02*
X127624685Y-111559561D01*
X127624685Y-111559561D02*
X127719923Y-111654800D01*
X127719923Y-111654800D02*
X127910399Y-111750038D01*
X127910399Y-111750038D02*
X128291352Y-111750038D01*
X128291352Y-111750038D02*
X128481828Y-111654800D01*
X126386590Y-111750038D02*
X126577066Y-111654800D01*
X126577066Y-111654800D02*
X126672304Y-111559561D01*
X126672304Y-111559561D02*
X126767542Y-111369085D01*
X126767542Y-111369085D02*
X126767542Y-110797657D01*
X126767542Y-110797657D02*
X126672304Y-110607180D01*
X126672304Y-110607180D02*
X126577066Y-110511942D01*
X126577066Y-110511942D02*
X126386590Y-110416704D01*
X126386590Y-110416704D02*
X126100875Y-110416704D01*
X126100875Y-110416704D02*
X125910399Y-110511942D01*
X125910399Y-110511942D02*
X125815161Y-110607180D01*
X125815161Y-110607180D02*
X125719923Y-110797657D01*
X125719923Y-110797657D02*
X125719923Y-111369085D01*
X125719923Y-111369085D02*
X125815161Y-111559561D01*
X125815161Y-111559561D02*
X125910399Y-111654800D01*
X125910399Y-111654800D02*
X126100875Y-111750038D01*
X126100875Y-111750038D02*
X126386590Y-111750038D01*
X125148494Y-110416704D02*
X124386590Y-110416704D01*
X124862780Y-109750038D02*
X124862780Y-111464323D01*
X124862780Y-111464323D02*
X124767542Y-111654800D01*
X124767542Y-111654800D02*
X124577066Y-111750038D01*
X124577066Y-111750038D02*
X124386590Y-111750038D01*
X123719923Y-111559561D02*
X123624685Y-111654800D01*
X123624685Y-111654800D02*
X123719923Y-111750038D01*
X123719923Y-111750038D02*
X123815161Y-111654800D01*
X123815161Y-111654800D02*
X123719923Y-111559561D01*
X123719923Y-111559561D02*
X123719923Y-111750038D01*
X121910399Y-111654800D02*
X122100875Y-111750038D01*
X122100875Y-111750038D02*
X122481828Y-111750038D01*
X122481828Y-111750038D02*
X122672304Y-111654800D01*
X122672304Y-111654800D02*
X122767542Y-111559561D01*
X122767542Y-111559561D02*
X122862780Y-111369085D01*
X122862780Y-111369085D02*
X122862780Y-110797657D01*
X122862780Y-110797657D02*
X122767542Y-110607180D01*
X122767542Y-110607180D02*
X122672304Y-110511942D01*
X122672304Y-110511942D02*
X122481828Y-110416704D01*
X122481828Y-110416704D02*
X122100875Y-110416704D01*
X122100875Y-110416704D02*
X121910399Y-110511942D01*
X120767542Y-111750038D02*
X120958018Y-111654800D01*
X120958018Y-111654800D02*
X121053256Y-111559561D01*
X121053256Y-111559561D02*
X121148494Y-111369085D01*
X121148494Y-111369085D02*
X121148494Y-110797657D01*
X121148494Y-110797657D02*
X121053256Y-110607180D01*
X121053256Y-110607180D02*
X120958018Y-110511942D01*
X120958018Y-110511942D02*
X120767542Y-110416704D01*
X120767542Y-110416704D02*
X120481827Y-110416704D01*
X120481827Y-110416704D02*
X120291351Y-110511942D01*
X120291351Y-110511942D02*
X120196113Y-110607180D01*
X120196113Y-110607180D02*
X120100875Y-110797657D01*
X120100875Y-110797657D02*
X120100875Y-111369085D01*
X120100875Y-111369085D02*
X120196113Y-111559561D01*
X120196113Y-111559561D02*
X120291351Y-111654800D01*
X120291351Y-111654800D02*
X120481827Y-111750038D01*
X120481827Y-111750038D02*
X120767542Y-111750038D01*
X119243732Y-111750038D02*
X119243732Y-110416704D01*
X119243732Y-110607180D02*
X119148494Y-110511942D01*
X119148494Y-110511942D02*
X118958018Y-110416704D01*
X118958018Y-110416704D02*
X118672303Y-110416704D01*
X118672303Y-110416704D02*
X118481827Y-110511942D01*
X118481827Y-110511942D02*
X118386589Y-110702419D01*
X118386589Y-110702419D02*
X118386589Y-111750038D01*
X118386589Y-110702419D02*
X118291351Y-110511942D01*
X118291351Y-110511942D02*
X118100875Y-110416704D01*
X118100875Y-110416704D02*
X117815161Y-110416704D01*
X117815161Y-110416704D02*
X117624684Y-110511942D01*
X117624684Y-110511942D02*
X117529446Y-110702419D01*
X117529446Y-110702419D02*
X117529446Y-111750038D01*
X143053258Y-122934912D02*
X142767544Y-123030150D01*
X142767544Y-123030150D02*
X142291353Y-123030150D01*
X142291353Y-123030150D02*
X142100877Y-122934912D01*
X142100877Y-122934912D02*
X142005639Y-122839673D01*
X142005639Y-122839673D02*
X141910401Y-122649197D01*
X141910401Y-122649197D02*
X141910401Y-122458721D01*
X141910401Y-122458721D02*
X142005639Y-122268245D01*
X142005639Y-122268245D02*
X142100877Y-122173007D01*
X142100877Y-122173007D02*
X142291353Y-122077769D01*
X142291353Y-122077769D02*
X142672306Y-121982531D01*
X142672306Y-121982531D02*
X142862782Y-121887292D01*
X142862782Y-121887292D02*
X142958020Y-121792054D01*
X142958020Y-121792054D02*
X143053258Y-121601578D01*
X143053258Y-121601578D02*
X143053258Y-121411102D01*
X143053258Y-121411102D02*
X142958020Y-121220626D01*
X142958020Y-121220626D02*
X142862782Y-121125388D01*
X142862782Y-121125388D02*
X142672306Y-121030150D01*
X142672306Y-121030150D02*
X142196115Y-121030150D01*
X142196115Y-121030150D02*
X141910401Y-121125388D01*
X141053258Y-121696816D02*
X141053258Y-123696816D01*
X141053258Y-121792054D02*
X140862782Y-121696816D01*
X140862782Y-121696816D02*
X140481829Y-121696816D01*
X140481829Y-121696816D02*
X140291353Y-121792054D01*
X140291353Y-121792054D02*
X140196115Y-121887292D01*
X140196115Y-121887292D02*
X140100877Y-122077769D01*
X140100877Y-122077769D02*
X140100877Y-122649197D01*
X140100877Y-122649197D02*
X140196115Y-122839673D01*
X140196115Y-122839673D02*
X140291353Y-122934912D01*
X140291353Y-122934912D02*
X140481829Y-123030150D01*
X140481829Y-123030150D02*
X140862782Y-123030150D01*
X140862782Y-123030150D02*
X141053258Y-122934912D01*
X138958020Y-123030150D02*
X139148496Y-122934912D01*
X139148496Y-122934912D02*
X139243734Y-122839673D01*
X139243734Y-122839673D02*
X139338972Y-122649197D01*
X139338972Y-122649197D02*
X139338972Y-122077769D01*
X139338972Y-122077769D02*
X139243734Y-121887292D01*
X139243734Y-121887292D02*
X139148496Y-121792054D01*
X139148496Y-121792054D02*
X138958020Y-121696816D01*
X138958020Y-121696816D02*
X138672305Y-121696816D01*
X138672305Y-121696816D02*
X138481829Y-121792054D01*
X138481829Y-121792054D02*
X138386591Y-121887292D01*
X138386591Y-121887292D02*
X138291353Y-122077769D01*
X138291353Y-122077769D02*
X138291353Y-122649197D01*
X138291353Y-122649197D02*
X138386591Y-122839673D01*
X138386591Y-122839673D02*
X138481829Y-122934912D01*
X138481829Y-122934912D02*
X138672305Y-123030150D01*
X138672305Y-123030150D02*
X138958020Y-123030150D01*
X137434210Y-121696816D02*
X137434210Y-123030150D01*
X137434210Y-121887292D02*
X137338972Y-121792054D01*
X137338972Y-121792054D02*
X137148496Y-121696816D01*
X137148496Y-121696816D02*
X136862781Y-121696816D01*
X136862781Y-121696816D02*
X136672305Y-121792054D01*
X136672305Y-121792054D02*
X136577067Y-121982531D01*
X136577067Y-121982531D02*
X136577067Y-123030150D01*
X135719924Y-122934912D02*
X135529448Y-123030150D01*
X135529448Y-123030150D02*
X135148496Y-123030150D01*
X135148496Y-123030150D02*
X134958019Y-122934912D01*
X134958019Y-122934912D02*
X134862781Y-122744435D01*
X134862781Y-122744435D02*
X134862781Y-122649197D01*
X134862781Y-122649197D02*
X134958019Y-122458721D01*
X134958019Y-122458721D02*
X135148496Y-122363483D01*
X135148496Y-122363483D02*
X135434210Y-122363483D01*
X135434210Y-122363483D02*
X135624686Y-122268245D01*
X135624686Y-122268245D02*
X135719924Y-122077769D01*
X135719924Y-122077769D02*
X135719924Y-121982531D01*
X135719924Y-121982531D02*
X135624686Y-121792054D01*
X135624686Y-121792054D02*
X135434210Y-121696816D01*
X135434210Y-121696816D02*
X135148496Y-121696816D01*
X135148496Y-121696816D02*
X134958019Y-121792054D01*
X133719924Y-123030150D02*
X133910400Y-122934912D01*
X133910400Y-122934912D02*
X134005638Y-122839673D01*
X134005638Y-122839673D02*
X134100876Y-122649197D01*
X134100876Y-122649197D02*
X134100876Y-122077769D01*
X134100876Y-122077769D02*
X134005638Y-121887292D01*
X134005638Y-121887292D02*
X133910400Y-121792054D01*
X133910400Y-121792054D02*
X133719924Y-121696816D01*
X133719924Y-121696816D02*
X133434209Y-121696816D01*
X133434209Y-121696816D02*
X133243733Y-121792054D01*
X133243733Y-121792054D02*
X133148495Y-121887292D01*
X133148495Y-121887292D02*
X133053257Y-122077769D01*
X133053257Y-122077769D02*
X133053257Y-122649197D01*
X133053257Y-122649197D02*
X133148495Y-122839673D01*
X133148495Y-122839673D02*
X133243733Y-122934912D01*
X133243733Y-122934912D02*
X133434209Y-123030150D01*
X133434209Y-123030150D02*
X133719924Y-123030150D01*
X132196114Y-123030150D02*
X132196114Y-121696816D01*
X132196114Y-122077769D02*
X132100876Y-121887292D01*
X132100876Y-121887292D02*
X132005638Y-121792054D01*
X132005638Y-121792054D02*
X131815162Y-121696816D01*
X131815162Y-121696816D02*
X131624685Y-121696816D01*
X130196114Y-122934912D02*
X130386590Y-123030150D01*
X130386590Y-123030150D02*
X130767543Y-123030150D01*
X130767543Y-123030150D02*
X130958019Y-122934912D01*
X130958019Y-122934912D02*
X131053257Y-122744435D01*
X131053257Y-122744435D02*
X131053257Y-121982531D01*
X131053257Y-121982531D02*
X130958019Y-121792054D01*
X130958019Y-121792054D02*
X130767543Y-121696816D01*
X130767543Y-121696816D02*
X130386590Y-121696816D01*
X130386590Y-121696816D02*
X130196114Y-121792054D01*
X130196114Y-121792054D02*
X130100876Y-121982531D01*
X130100876Y-121982531D02*
X130100876Y-122173007D01*
X130100876Y-122173007D02*
X131053257Y-122363483D01*
X128386590Y-123030150D02*
X128386590Y-121030150D01*
X128386590Y-122934912D02*
X128577066Y-123030150D01*
X128577066Y-123030150D02*
X128958019Y-123030150D01*
X128958019Y-123030150D02*
X129148495Y-122934912D01*
X129148495Y-122934912D02*
X129243733Y-122839673D01*
X129243733Y-122839673D02*
X129338971Y-122649197D01*
X129338971Y-122649197D02*
X129338971Y-122077769D01*
X129338971Y-122077769D02*
X129243733Y-121887292D01*
X129243733Y-121887292D02*
X129148495Y-121792054D01*
X129148495Y-121792054D02*
X128958019Y-121696816D01*
X128958019Y-121696816D02*
X128577066Y-121696816D01*
X128577066Y-121696816D02*
X128386590Y-121792054D01*
X125910399Y-123030150D02*
X125910399Y-121030150D01*
X125910399Y-121792054D02*
X125719923Y-121696816D01*
X125719923Y-121696816D02*
X125338970Y-121696816D01*
X125338970Y-121696816D02*
X125148494Y-121792054D01*
X125148494Y-121792054D02*
X125053256Y-121887292D01*
X125053256Y-121887292D02*
X124958018Y-122077769D01*
X124958018Y-122077769D02*
X124958018Y-122649197D01*
X124958018Y-122649197D02*
X125053256Y-122839673D01*
X125053256Y-122839673D02*
X125148494Y-122934912D01*
X125148494Y-122934912D02*
X125338970Y-123030150D01*
X125338970Y-123030150D02*
X125719923Y-123030150D01*
X125719923Y-123030150D02*
X125910399Y-122934912D01*
X124291351Y-121696816D02*
X123815161Y-123030150D01*
X123338970Y-121696816D02*
X123815161Y-123030150D01*
X123815161Y-123030150D02*
X124005637Y-123506340D01*
X124005637Y-123506340D02*
X124100875Y-123601578D01*
X124100875Y-123601578D02*
X124291351Y-123696816D01*
X122577065Y-122839673D02*
X122481827Y-122934912D01*
X122481827Y-122934912D02*
X122577065Y-123030150D01*
X122577065Y-123030150D02*
X122672303Y-122934912D01*
X122672303Y-122934912D02*
X122577065Y-122839673D01*
X122577065Y-122839673D02*
X122577065Y-123030150D01*
X122577065Y-121792054D02*
X122481827Y-121887292D01*
X122481827Y-121887292D02*
X122577065Y-121982531D01*
X122577065Y-121982531D02*
X122672303Y-121887292D01*
X122672303Y-121887292D02*
X122577065Y-121792054D01*
X122577065Y-121792054D02*
X122577065Y-121982531D01*
X141434210Y-126250038D02*
X141434210Y-124250038D01*
X141434210Y-124250038D02*
X140672305Y-124250038D01*
X140672305Y-124250038D02*
X140481829Y-124345276D01*
X140481829Y-124345276D02*
X140386591Y-124440514D01*
X140386591Y-124440514D02*
X140291353Y-124630990D01*
X140291353Y-124630990D02*
X140291353Y-124916704D01*
X140291353Y-124916704D02*
X140386591Y-125107180D01*
X140386591Y-125107180D02*
X140481829Y-125202419D01*
X140481829Y-125202419D02*
X140672305Y-125297657D01*
X140672305Y-125297657D02*
X141434210Y-125297657D01*
X138291353Y-126059561D02*
X138386591Y-126154800D01*
X138386591Y-126154800D02*
X138672305Y-126250038D01*
X138672305Y-126250038D02*
X138862781Y-126250038D01*
X138862781Y-126250038D02*
X139148496Y-126154800D01*
X139148496Y-126154800D02*
X139338972Y-125964323D01*
X139338972Y-125964323D02*
X139434210Y-125773847D01*
X139434210Y-125773847D02*
X139529448Y-125392895D01*
X139529448Y-125392895D02*
X139529448Y-125107180D01*
X139529448Y-125107180D02*
X139434210Y-124726228D01*
X139434210Y-124726228D02*
X139338972Y-124535752D01*
X139338972Y-124535752D02*
X139148496Y-124345276D01*
X139148496Y-124345276D02*
X138862781Y-124250038D01*
X138862781Y-124250038D02*
X138672305Y-124250038D01*
X138672305Y-124250038D02*
X138386591Y-124345276D01*
X138386591Y-124345276D02*
X138291353Y-124440514D01*
X136767543Y-125202419D02*
X136481829Y-125297657D01*
X136481829Y-125297657D02*
X136386591Y-125392895D01*
X136386591Y-125392895D02*
X136291353Y-125583371D01*
X136291353Y-125583371D02*
X136291353Y-125869085D01*
X136291353Y-125869085D02*
X136386591Y-126059561D01*
X136386591Y-126059561D02*
X136481829Y-126154800D01*
X136481829Y-126154800D02*
X136672305Y-126250038D01*
X136672305Y-126250038D02*
X137434210Y-126250038D01*
X137434210Y-126250038D02*
X137434210Y-124250038D01*
X137434210Y-124250038D02*
X136767543Y-124250038D01*
X136767543Y-124250038D02*
X136577067Y-124345276D01*
X136577067Y-124345276D02*
X136481829Y-124440514D01*
X136481829Y-124440514D02*
X136386591Y-124630990D01*
X136386591Y-124630990D02*
X136386591Y-124821466D01*
X136386591Y-124821466D02*
X136481829Y-125011942D01*
X136481829Y-125011942D02*
X136577067Y-125107180D01*
X136577067Y-125107180D02*
X136767543Y-125202419D01*
X136767543Y-125202419D02*
X137434210Y-125202419D01*
X135624686Y-124250038D02*
X135148496Y-126250038D01*
X135148496Y-126250038D02*
X134767543Y-124821466D01*
X134767543Y-124821466D02*
X134386591Y-126250038D01*
X134386591Y-126250038D02*
X133910401Y-124250038D01*
X132291353Y-126250038D02*
X132291353Y-125202419D01*
X132291353Y-125202419D02*
X132386591Y-125011942D01*
X132386591Y-125011942D02*
X132577067Y-124916704D01*
X132577067Y-124916704D02*
X132958020Y-124916704D01*
X132958020Y-124916704D02*
X133148496Y-125011942D01*
X132291353Y-126154800D02*
X132481829Y-126250038D01*
X132481829Y-126250038D02*
X132958020Y-126250038D01*
X132958020Y-126250038D02*
X133148496Y-126154800D01*
X133148496Y-126154800D02*
X133243734Y-125964323D01*
X133243734Y-125964323D02*
X133243734Y-125773847D01*
X133243734Y-125773847D02*
X133148496Y-125583371D01*
X133148496Y-125583371D02*
X132958020Y-125488133D01*
X132958020Y-125488133D02*
X132481829Y-125488133D01*
X132481829Y-125488133D02*
X132291353Y-125392895D01*
X131529448Y-124916704D02*
X131053258Y-126250038D01*
X130577067Y-124916704D02*
X131053258Y-126250038D01*
X131053258Y-126250038D02*
X131243734Y-126726228D01*
X131243734Y-126726228D02*
X131338972Y-126821466D01*
X131338972Y-126821466D02*
X131529448Y-126916704D01*
X129815162Y-126059561D02*
X129719924Y-126154800D01*
X129719924Y-126154800D02*
X129815162Y-126250038D01*
X129815162Y-126250038D02*
X129910400Y-126154800D01*
X129910400Y-126154800D02*
X129815162Y-126059561D01*
X129815162Y-126059561D02*
X129815162Y-126250038D01*
X128005638Y-126154800D02*
X128196114Y-126250038D01*
X128196114Y-126250038D02*
X128577067Y-126250038D01*
X128577067Y-126250038D02*
X128767543Y-126154800D01*
X128767543Y-126154800D02*
X128862781Y-126059561D01*
X128862781Y-126059561D02*
X128958019Y-125869085D01*
X128958019Y-125869085D02*
X128958019Y-125297657D01*
X128958019Y-125297657D02*
X128862781Y-125107180D01*
X128862781Y-125107180D02*
X128767543Y-125011942D01*
X128767543Y-125011942D02*
X128577067Y-124916704D01*
X128577067Y-124916704D02*
X128196114Y-124916704D01*
X128196114Y-124916704D02*
X128005638Y-125011942D01*
X126862781Y-126250038D02*
X127053257Y-126154800D01*
X127053257Y-126154800D02*
X127148495Y-126059561D01*
X127148495Y-126059561D02*
X127243733Y-125869085D01*
X127243733Y-125869085D02*
X127243733Y-125297657D01*
X127243733Y-125297657D02*
X127148495Y-125107180D01*
X127148495Y-125107180D02*
X127053257Y-125011942D01*
X127053257Y-125011942D02*
X126862781Y-124916704D01*
X126862781Y-124916704D02*
X126577066Y-124916704D01*
X126577066Y-124916704D02*
X126386590Y-125011942D01*
X126386590Y-125011942D02*
X126291352Y-125107180D01*
X126291352Y-125107180D02*
X126196114Y-125297657D01*
X126196114Y-125297657D02*
X126196114Y-125869085D01*
X126196114Y-125869085D02*
X126291352Y-126059561D01*
X126291352Y-126059561D02*
X126386590Y-126154800D01*
X126386590Y-126154800D02*
X126577066Y-126250038D01*
X126577066Y-126250038D02*
X126862781Y-126250038D01*
X125338971Y-126250038D02*
X125338971Y-124916704D01*
X125338971Y-125107180D02*
X125243733Y-125011942D01*
X125243733Y-125011942D02*
X125053257Y-124916704D01*
X125053257Y-124916704D02*
X124767542Y-124916704D01*
X124767542Y-124916704D02*
X124577066Y-125011942D01*
X124577066Y-125011942D02*
X124481828Y-125202419D01*
X124481828Y-125202419D02*
X124481828Y-126250038D01*
X124481828Y-125202419D02*
X124386590Y-125011942D01*
X124386590Y-125011942D02*
X124196114Y-124916704D01*
X124196114Y-124916704D02*
X123910400Y-124916704D01*
X123910400Y-124916704D02*
X123719923Y-125011942D01*
X123719923Y-125011942D02*
X123624685Y-125202419D01*
X123624685Y-125202419D02*
X123624685Y-126250038D01*
X160719925Y-44872419D02*
X161196115Y-44872419D01*
X161196115Y-44872419D02*
X161243734Y-45348609D01*
X161243734Y-45348609D02*
X161196115Y-45300990D01*
X161196115Y-45300990D02*
X161100877Y-45253371D01*
X161100877Y-45253371D02*
X160862782Y-45253371D01*
X160862782Y-45253371D02*
X160767544Y-45300990D01*
X160767544Y-45300990D02*
X160719925Y-45348609D01*
X160719925Y-45348609D02*
X160672306Y-45443847D01*
X160672306Y-45443847D02*
X160672306Y-45681942D01*
X160672306Y-45681942D02*
X160719925Y-45777180D01*
X160719925Y-45777180D02*
X160767544Y-45824800D01*
X160767544Y-45824800D02*
X160862782Y-45872419D01*
X160862782Y-45872419D02*
X161100877Y-45872419D01*
X161100877Y-45872419D02*
X161196115Y-45824800D01*
X161196115Y-45824800D02*
X161243734Y-45777180D01*
X160386591Y-44872419D02*
X160053258Y-45872419D01*
X160053258Y-45872419D02*
X159719925Y-44872419D01*
X158172306Y-44920038D02*
X158267544Y-44872419D01*
X158267544Y-44872419D02*
X158410401Y-44872419D01*
X158410401Y-44872419D02*
X158553258Y-44920038D01*
X158553258Y-44920038D02*
X158648496Y-45015276D01*
X158648496Y-45015276D02*
X158696115Y-45110514D01*
X158696115Y-45110514D02*
X158743734Y-45300990D01*
X158743734Y-45300990D02*
X158743734Y-45443847D01*
X158743734Y-45443847D02*
X158696115Y-45634323D01*
X158696115Y-45634323D02*
X158648496Y-45729561D01*
X158648496Y-45729561D02*
X158553258Y-45824800D01*
X158553258Y-45824800D02*
X158410401Y-45872419D01*
X158410401Y-45872419D02*
X158315163Y-45872419D01*
X158315163Y-45872419D02*
X158172306Y-45824800D01*
X158172306Y-45824800D02*
X158124687Y-45777180D01*
X158124687Y-45777180D02*
X158124687Y-45443847D01*
X158124687Y-45443847D02*
X158315163Y-45443847D01*
X157696115Y-45872419D02*
X157696115Y-44872419D01*
X157696115Y-44872419D02*
X157124687Y-45872419D01*
X157124687Y-45872419D02*
X157124687Y-44872419D01*
X156648496Y-45872419D02*
X156648496Y-44872419D01*
X156648496Y-44872419D02*
X156410401Y-44872419D01*
X156410401Y-44872419D02*
X156267544Y-44920038D01*
X156267544Y-44920038D02*
X156172306Y-45015276D01*
X156172306Y-45015276D02*
X156124687Y-45110514D01*
X156124687Y-45110514D02*
X156077068Y-45300990D01*
X156077068Y-45300990D02*
X156077068Y-45443847D01*
X156077068Y-45443847D02*
X156124687Y-45634323D01*
X156124687Y-45634323D02*
X156172306Y-45729561D01*
X156172306Y-45729561D02*
X156267544Y-45824800D01*
X156267544Y-45824800D02*
X156410401Y-45872419D01*
X156410401Y-45872419D02*
X156648496Y-45872419D01*
%LPC*%
D11*
%TO.C,MK1*%
X112338000Y-98500000D03*
%TD*%
D12*
%TO.C,J3*%
X160000000Y-52950000D03*
D13*
X158000000Y-52950000D03*
%TD*%
D14*
%TO.C,J1*%
X121500000Y-84580000D03*
D15*
X121500000Y-82040000D03*
X121500000Y-79500000D03*
X121500000Y-76960000D03*
X121500000Y-74420000D03*
X121500000Y-71880000D03*
X121500000Y-69340000D03*
%TD*%
D16*
%TO.C,SW2*%
X159010000Y-69500000D03*
X159010000Y-76510000D03*
D17*
X161500000Y-70750000D03*
X161500000Y-75250000D03*
%TD*%
D16*
%TO.C,SW3*%
X159047500Y-89975000D03*
X159047500Y-96985000D03*
D17*
X161537500Y-91225000D03*
X161537500Y-95725000D03*
%TD*%
D18*
%TO.C,BT2*%
X134500000Y-117000000D03*
X134500000Y-141000000D03*
D19*
X110780000Y-117000000D03*
D20*
X110780000Y-129700000D03*
%TD*%
D16*
%TO.C,SW1*%
X159047500Y-99975000D03*
X159047500Y-106985000D03*
D17*
X161537500Y-101225000D03*
X161537500Y-105725000D03*
%TD*%
%LPD*%
M02*
