M48
; DRILL file {KiCad 9.0.6} date 2025-12-21T07:11:06-0600
; FORMAT={-:-/ absolute / metric / decimal}
; #@! TF.CreationDate,2025-12-21T07:11:06-06:00
; #@! TF.GenerationSoftware,Kicad,Pcbnew,9.0.6
; #@! TF.FileFunction,Plated,1,2,PTH
FMAT,2
METRIC
; #@! TA.AperFunction,Plated,PTH,ViaDrill
T1C0.300
; #@! TA.AperFunction,Plated,PTH,ComponentDrill
T2C0.750
; #@! TA.AperFunction,Plated,PTH,ComponentDrill
T3C0.990
; #@! TA.AperFunction,Plated,PTH,ComponentDrill
T4C1.000
; #@! TA.AperFunction,Plated,PTH,ComponentDrill
T5C1.100
; #@! TA.AperFunction,Plated,PTH,ComponentDrill
T6C1.300
%
G90
G05
T1
X110.0Y-95.0
X112.0Y-94.0
X114.0Y-100.5
X114.248Y-97.248
X114.5Y-95.5
X115.5Y-100.5
X116.0Y-90.104
X116.5Y-64.0
X116.532Y-64.968
X118.0Y-66.5
X119.0Y-72.5
X120.5Y-61.5
X121.0Y-64.0
X123.0Y-75.5
X123.0Y-86.5
X123.5Y-73.0
X124.0Y-79.5
X125.0Y-88.0
X126.0Y-73.5
X127.0Y-79.5
X127.5Y-70.0
X128.0Y-81.0
X130.517Y-83.973
X131.0Y-74.5
X131.5Y-77.5
X132.0Y-54.5
X134.0Y-74.0
X134.0Y-76.0
X134.5Y-78.0
X138.25Y-62.75
X144.399Y-86.899
X147.5Y-80.5
X148.0Y-77.0
X151.5Y-78.5
X152.5Y-82.5
X154.0Y-81.0
T2
X158.0Y-52.95
X160.0Y-52.95
T3
X161.5Y-70.75
X161.5Y-75.25
X161.537Y-91.225
X161.537Y-95.725
X161.537Y-101.225
X161.537Y-105.725
T4
X121.5Y-69.34
X121.5Y-71.88
X121.5Y-74.42
X121.5Y-76.96
X121.5Y-79.5
X121.5Y-82.04
X121.5Y-84.58
T5
X110.78Y-117.0
X110.78Y-129.7
T6
X159.01Y-69.5
X159.01Y-76.51
X159.047Y-89.975
X159.047Y-96.985
X159.047Y-99.975
X159.047Y-106.985
M30
