%TF.GenerationSoftware,KiCad,Pcbnew,9.0.6*%
%TF.CreationDate,2025-12-21T07:11:03-06:00*%
%TF.ProjectId,FeatheAudio,46656174-6865-4417-9564-696f2e6b6963,rev?*%
%TF.SameCoordinates,Original*%
%TF.FileFunction,Paste,Top*%
%TF.FilePolarity,Positive*%
%FSLAX46Y46*%
G04 Gerber Fmt 4.6, Leading zero omitted, Abs format (unit mm)*
G04 Created by KiCad (PCBNEW 9.0.6) date 2025-12-21 07:11:03*
%MOMM*%
%LPD*%
G01*
G04 APERTURE LIST*
G04 Aperture macros list*
%AMRoundRect*
0 Rectangle with rounded corners*
0 $1 Rounding radius*
0 $2 $3 $4 $5 $6 $7 $8 $9 X,Y pos of 4 corners*
0 Add a 4 corners polygon primitive as box body*
4,1,4,$2,$3,$4,$5,$6,$7,$8,$9,$2,$3,0*
0 Add four circle primitives for the rounded corners*
1,1,$1+$1,$2,$3*
1,1,$1+$1,$4,$5*
1,1,$1+$1,$6,$7*
1,1,$1+$1,$8,$9*
0 Add four rect primitives between the rounded corners*
20,1,$1+$1,$2,$3,$4,$5,0*
20,1,$1+$1,$4,$5,$6,$7,0*
20,1,$1+$1,$6,$7,$8,$9,0*
20,1,$1+$1,$8,$9,$2,$3,0*%
G04 Aperture macros list end*
%ADD10C,0.000000*%
%ADD11R,0.700000X1.200000*%
%ADD12R,1.000000X0.800000*%
%ADD13R,1.000000X1.200000*%
%ADD14R,1.000000X2.800000*%
%ADD15R,1.300000X1.900000*%
%ADD16R,1.900000X1.000000*%
%ADD17RoundRect,0.130500X-0.169500X-0.130500X0.169500X-0.130500X0.169500X0.130500X-0.169500X0.130500X0*%
%ADD18RoundRect,0.225000X-0.225000X-0.250000X0.225000X-0.250000X0.225000X0.250000X-0.225000X0.250000X0*%
%ADD19RoundRect,0.135000X-0.135000X-0.185000X0.135000X-0.185000X0.135000X0.185000X-0.135000X0.185000X0*%
%ADD20RoundRect,0.250000X-0.295000X-0.315000X0.295000X-0.315000X0.295000X0.315000X-0.295000X0.315000X0*%
%ADD21R,2.540000X3.510000*%
G04 APERTURE END LIST*
D10*
%TO.C,MK1*%
G36*
X111911900Y-98215300D02*
G01*
X111870200Y-98290700D01*
X111841700Y-98372000D01*
X111827300Y-98456900D01*
X111827300Y-98543100D01*
X111841700Y-98628000D01*
X111870200Y-98709300D01*
X111911900Y-98784700D01*
X111697100Y-98999400D01*
X111614700Y-98870000D01*
X111558000Y-98727400D01*
X111529100Y-98576700D01*
X111529100Y-98423300D01*
X111558000Y-98272600D01*
X111614700Y-98130000D01*
X111697100Y-98000600D01*
X111911900Y-98215300D01*
G37*
G36*
X112565400Y-97720000D02*
G01*
X112708000Y-97776700D01*
X112837400Y-97859100D01*
X112622700Y-98073900D01*
X112547300Y-98032200D01*
X112466000Y-98003700D01*
X112381100Y-97989300D01*
X112294900Y-97989300D01*
X112210000Y-98003700D01*
X112128700Y-98032200D01*
X112053300Y-98073900D01*
X111838600Y-97859100D01*
X111968000Y-97776700D01*
X112110600Y-97720000D01*
X112261300Y-97691100D01*
X112414700Y-97691100D01*
X112565400Y-97720000D01*
G37*
G36*
X112837400Y-99140900D02*
G01*
X112708000Y-99223300D01*
X112565400Y-99280000D01*
X112414700Y-99308900D01*
X112261300Y-99308900D01*
X112110600Y-99280000D01*
X111968000Y-99223300D01*
X111838600Y-99140900D01*
X112053300Y-98926100D01*
X112128700Y-98967800D01*
X112210000Y-98996300D01*
X112294900Y-99010700D01*
X112381100Y-99010700D01*
X112466000Y-98996300D01*
X112547300Y-98967800D01*
X112622700Y-98926100D01*
X112837400Y-99140900D01*
G37*
G36*
X113061300Y-98130000D02*
G01*
X113118000Y-98272600D01*
X113146900Y-98423300D01*
X113146900Y-98576700D01*
X113118000Y-98727400D01*
X113061300Y-98870000D01*
X112978900Y-98999400D01*
X112764100Y-98784700D01*
X112805800Y-98709300D01*
X112834300Y-98628000D01*
X112848700Y-98543100D01*
X112848700Y-98456900D01*
X112834300Y-98372000D01*
X112805800Y-98290700D01*
X112764100Y-98215300D01*
X112978900Y-98000600D01*
X113061300Y-98130000D01*
G37*
%TD*%
D11*
%TO.C,J6*%
X111755000Y-62690000D03*
X112855000Y-62690000D03*
X113955000Y-62690000D03*
X115055000Y-62690000D03*
X116155000Y-62690000D03*
X117255000Y-62690000D03*
X118355000Y-62690000D03*
X119455000Y-62690000D03*
X120405000Y-62690000D03*
D12*
X121355000Y-52190000D03*
D13*
X121355000Y-58390000D03*
D14*
X121355000Y-48040000D03*
D13*
X110205000Y-62690000D03*
D15*
X107855000Y-47590000D03*
%TD*%
D16*
%TO.C,J5*%
X146200000Y-56880000D03*
X149500000Y-59420000D03*
X146200000Y-61960000D03*
X149500000Y-64500000D03*
X146200000Y-67040000D03*
X149500000Y-69580000D03*
X146200000Y-72120000D03*
X149500000Y-74660000D03*
X146200000Y-77200000D03*
X149500000Y-79740000D03*
X146200000Y-82280000D03*
X149500000Y-84820000D03*
%TD*%
D17*
%TO.C,MK1*%
X111438000Y-96426000D03*
X111438000Y-97248000D03*
X113238000Y-97248000D03*
X113238000Y-96426000D03*
X112338000Y-96426000D03*
%TD*%
D16*
%TO.C,J4*%
X126000000Y-46800000D03*
X129300000Y-49340000D03*
X126000000Y-51880000D03*
X129300000Y-54420000D03*
X126000000Y-56960000D03*
X129300000Y-59500000D03*
X126000000Y-62040000D03*
X129300000Y-64580000D03*
X126000000Y-67120000D03*
X129300000Y-69660000D03*
X126000000Y-72200000D03*
X129300000Y-74740000D03*
X126000000Y-77280000D03*
X129300000Y-79820000D03*
X126000000Y-82360000D03*
X129300000Y-84900000D03*
%TD*%
D18*
%TO.C,C1*%
X116225000Y-96500000D03*
X117775000Y-96500000D03*
%TD*%
D19*
%TO.C,R1*%
X108430000Y-96810000D03*
X109450000Y-96810000D03*
%TD*%
D20*
%TO.C,C2*%
X116295000Y-98500000D03*
X117725000Y-98500000D03*
%TD*%
D21*
%TO.C,BT1*%
X151680000Y-97000000D03*
X122320000Y-97000000D03*
%TD*%
D19*
%TO.C,R2*%
X108430000Y-98560000D03*
X109450000Y-98560000D03*
%TD*%
M02*
